/* XPM */
static char *right2_xpm[] = {
/* width height num_colors chars_per_pixel */
"    16    16       32            1",
/* colors */
"` c #4e6338",
". c #000000",
"# c #151560",
"a c #7c5500",
"b c #c6a900",
"c c #422200",
"d c #f8e027",
"e c #1c1c1c",
"f c #353535",
"g c #4c4c4a",
"h c #7d7b76",
"i c #a29e96",
"j c #bebbb5",
"k c #e8e8e8",
"l c #000000",
"m c #f8f8e0",
"n c #f6a954",
"o c #67c078",
"p c #f86000",
"q c #84482b",
"r c #90d898",
"s c #279070",
"t c #2e2722",
"u c #d97f40",
"v c #402e15",
"w c #5d4615",
"x c #0000d0",
"y c #c19e2e",
"z c #f97f00",
"A c #00adf2",
"B c #fd32f9",
"C c #7f0000",
/* pixels */
"``````...`#`````",
"`````.abb.#`````",
"`````abbba.`````",
"````.ccaaa.`````",
"````..eeee..#```",
"````#effhhgf#```",
"````.efggiig.```",
"````.hhhgghh.```",
"````.eeeijjj.```",
"````#eeefggg#```",
"````#eefgklh#```",
"````#lfffgng#```",
"````##lghggl#```",
"``#`p`llnlglp`#`",
"``ddstllulflsdd`",
"``##``tllvl``##`"
};
