/* XPM */
static char *up2_xpm[] = {
/* width height num_colors chars_per_pixel */
"    16    16       32            1",
/* colors */
"` c #4e6338",
". c #151560",
"# c #000000",
"a c #c6a900",
"b c #7c5500",
"c c #422200",
"d c #f8e027",
"e c #1c1c1c",
"f c #353535",
"g c #4c4c4a",
"h c #a29e96",
"i c #7d7b76",
"j c #000000",
"k c #f6a954",
"l c #d97f40",
"m c #67c078",
"n c #2e2722",
"o c #402e15",
"p c #5d4615",
"q c #000000",
"r c #000000",
"s c #000000",
"t c #000000",
"u c #000000",
"v c #000000",
"w c #000000",
"x c #0000d0",
"y c #c19e2e",
"z c #f97f00",
"A c #00adf2",
"B c #fd32f9",
"C c #7f0000",
/* pixels */
"``````.`#`.`````",
"``````.#a#.`````",
"``````#bab#`````",
"``````#cbc#`````",
"````.#eccce#.```",
"````#efgcgfe#```",
"````efgghggfe```",
"````iifgigfii```",
"````egiihiige```",
"````#effgffe#```",
"````#ggggggg#```",
"````jifgggfij```",
"```jkjgiiigjkj``",
"``.jljgggggjlj.`",
"``ddjjfgggfjjdd`",
"``..`joojooj`..`"
};
