/* XPM */
static char *wall1_xpm[] = {
/* width height num_colors chars_per_pixel */
"    16    16       64            2",
/* colors */
"`` c #3b4c2b",
"`. c #151515",
"`# c #93c146",
"`a c #384a27",
"`b c #384827",
"`c c #354627",
"`d c #354427",
"`e c #354627",
"`f c #384a2b",
"`g c #3b4c2b",
"`h c #324222",
"`i c #324222",
"`j c #324222",
"`k c #324222",
"`l c #324422",
"`m c #354422",
"`n c #384827",
"`o c #384a27",
"`p c #598c46",
"`q c #354627",
"`r c #354427",
"`s c #354627",
"`t c #77a946",
"`u c #356b3d",
"`v c #22402e",
"`w c #354427",
"`x c #2e2215",
"`y c #4e3815",
"`z c #654e1c",
"`A c #384a2b",
"`B c #7b652e",
"`C c #384827",
"`D c #3b4a2b",
"`E c #000000",
"`F c #000000",
"`G c #000000",
"`H c #000000",
"`I c #0080ed",
"`J c #40a6f7",
"`K c #000000",
"`L c #000000",
"`M c #000000",
"`N c #000000",
"`O c #000000",
"`P c #000000",
"`Q c #000000",
"`R c #000000",
"`S c #000000",
"`T c #000000",
"`U c #000000",
"`V c #000000",
"`W c #000000",
"`X c #000000",
"`Y c #000000",
"`Z c #000000",
"`0 c #000000",
"`1 c #000000",
"`2 c #000000",
"`3 c #000000",
"`4 c #000000",
"`5 c #000000",
"`6 c #000000",
"`7 c #000000",
"`8 c #000000",
/* pixels */
"```````````````.`.``````````````",
"`````````````.`#`#`.````````````",
"```````j`j`.`p`#`#`p`.`````m````",
"```````````.`t`t`t`t`.``````````",
"`````````.`u`p`t`t`p`u`.````````",
"```````.`v`p`p`p`p`p`p`v`.`l````",
"```````.`u`u`p`p`p`p`u`u`.```e``",
"```````.`u`u`u`u`u`u`u`u`.``````",
"```````.`v`u`u`u`u`u`u`v`.``````",
"```````.`v`v`v`v`v`v`v`v`.``````",
"`````````.`v`v`v`v`v`v`.`````g``",
"```````````.`x`y`y`x`.``````````",
"`````````o`x`y`z`z`y`x``````````",
"```````k`e`k`x`B`B`x````````````",
"`````````````````````````d`m`b``",
"````````````````````````````````"
};
