/* XPM */
static char *left1_xpm[] = {
/* width height num_colors chars_per_pixel */
"    24    24       32            1",
/* colors */
"` c #4e6338",
". c #000000",
"# c #c6a900",
"a c #7c5500",
"b c #422200",
"c c #1c1c1c",
"d c #353535",
"e c #4c4c4a",
"f c #7d7b76",
"g c #a29e96",
"h c #bebbb5",
"i c #000000",
"j c #e8e8e8",
"k c #f6a954",
"l c #d97f40",
"m c #402e15",
"n c #5d4615",
"o c #000000",
"p c #000000",
"q c #000000",
"r c #000000",
"s c #000000",
"t c #000000",
"u c #000000",
"v c #000000",
"w c #000000",
"x c #0000d0",
"y c #c19e2e",
"z c #f97f00",
"A c #00adf2",
"B c #fd32f9",
"C c #7f0000",
/* pixels */
"```````````.....````````",
"```````````.....````````",
"``````````.####a.```````",
"`````````.a#####a.``````",
"`````````.aaaaabbb..````",
"`````````.baaabbbb..````",
"````````..ccbbcc....````",
"````````..ccbbcc....````",
"``````..deffeeddc.``````",
"`````.ddeggeeeedcc..````",
"`````.gghfeeddffee..````",
"`````.hhhhggggfeed..````",
"`````.ddhhhggggccc..````",
"`````.ddhhhggggccc..````",
"``````..eeedcccccc..````",
"``````..fijedddcc.``````",
"``````..ekedddddi```````",
"``````..iddfffei````````",
"````````ieefffei````````",
"````````ieefffei````````",
"````````ieikkkii````````",
"````````idilkkii````````",
"`````````imiiii`````````",
"`````````innnni`````````"
};
