/* XPM */
static char *coin_xpm[] = {
/* width height num_colors chars_per_pixel */
"    48    48       16            1",
/* colors */
"` c #4e6338",
". c #957215",
"# c #cda332",
"a c #d3ae4a",
"b c #d0a93d",
"c c #d9b962",
"d c #d6b355",
"e c #dfc47a",
"f c #dcbe6e",
"g c #e2c986",
"h c #e8d49e",
"i c #a27c15",
"j c #e5ce92",
"k c #af861c",
"l c #bc901c",
"m c #000000",
/* pixels */
"````````````````````````````````````````````````",
"````````````````````````````````````````````````",
"````````````````````````````````````````````````",
"````````````````````````````````````````````````",
"````````````````````````````````````````````````",
"````````````````````````````````````````````````",
"````````````````````````````````````````````````",
"````````````````````````````````````````````````",
"````````````````````````````````````````````````",
"````````````````````````````````````````````````",
"````````````````````````````````````````````````",
"````````````````````````````````````````````````",
"`````````````````````........```````````````````",
"`````````````````````........```````````````````",
"```````````````````..#####aaa.``````````````````",
"``````````````````.###..#####a..````````````````",
"````````````````..###.##.....#aa.```````````````",
"````````````````..###.##.....#aa.```````````````",
"````````````````..#..#####abb.bb.```````````````",
"```````````````.###..######aa.##c..`````````````",
"```````````````.###..######aa.##c..`````````````",
"```````````````.###..#..###bbd..e..`````````````",
"```````````````.###..#..#####f..g..`````````````",
"```````````````.###..#..#####f..g..`````````````",
"```````````````.###..#..#####e..hii`````````````",
"```````````````i###..#..#####j..h..`````````````",
"```````````````i###..#..#####j..h..`````````````",
"```````````````i###..######cc.##h..`````````````",
"```````````````i###..######cc.##h..`````````````",
"````````````````..#..#####bbb.jjl```````````````",
"````````````````..###.##.....#cc.```````````````",
"````````````````..###.##.....#cc.```````````````",
"``````````````````.###..#####c..````````````````",
"```````````````````..######aai``````````````````",
"```````````````````..######aai``````````````````",
"`````````````````````........```````````````````",
"````````````````````````````````````````````````",
"````````````````````````````````````````````````",
"````````````````````````````````````````````````",
"````````````````````````````````````````````````",
"````````````````````````````````````````````````",
"````````````````````````````````````````````````",
"````````````````````````````````````````````````",
"````````````````````````````````````````````````",
"````````````````````````````````````````````````",
"````````````````````````````````````````````````",
"````````````````````````````````````````````````",
"````````````````````````````````````````````````"
};
