/* XPM */
static char *down2_xpm[] = {
/* width height num_colors chars_per_pixel */
"    48    48       32            1",
/* colors */
"` c #4e6338",
". c #151560",
"# c #000000",
"a c #c6a900",
"b c #7c5500",
"c c #f8e027",
"d c #422200",
"e c #1c1c1c",
"f c #353535",
"g c #4c4c4a",
"h c #7d7b76",
"i c #a29e96",
"j c #bebbb5",
"k c #e8e8e8",
"l c #000000",
"m c #f6a954",
"n c #84482b",
"o c #d97f40",
"p c #279070",
"q c #67c078",
"r c #2e2722",
"s c #402e15",
"t c #5d4615",
"u c #000000",
"v c #000000",
"w c #000000",
"x c #0000d0",
"y c #c19e2e",
"z c #f97f00",
"A c #00adf2",
"B c #fd32f9",
"C c #7f0000",
/* pixels */
"``````````````````...``####`...`````````````````",
"``````````````````...``####`...`````````````````",
"```````````````...`````####````....`````````````",
"`````````````..```..```####```.````.````````````",
"`````````````..```.####aaaa###.````.````````````",
"`````````````..```.####aaaa###.````.````````````",
"````````````````..#bbbbaaaabbb##.```````````````",
"`````````````..```#bbbbaaaabbb##```.````````````",
"`````````````..```#bbbbbbbbbbb##```.````````````",
"`````````````..`..#bbbbbbbbbbb##.``.````````````",
"````````````.cc.``#ddddbbbbddd##`..c..``````````",
"````````````.cc.``#ddddbbbbddd##`..c..``````````",
"````````````.cc.``#ddddbbbbddd##`..c..``````````",
"````````````.cc###eeeeeddddeeeee#..c..``````````",
"`````````````..###eeeeeddddeeeee#``.````````````",
"````````````###eeefgggghhhhgggffe###..``````````",
"````````````###eeefgggghhhhgggffe###..``````````",
"````````````###eeefgggghhhhgggffe###..``````````",
"```````````#eeefffgggggiiiigggggfeee###`````````",
"```````````#eeefffgggggiiiigggggfeee###`````````",
"```````````#hhhhhhfgggghhhhgggffhhhh###`````````",
"```````````#hhhhhhfgggghhhhgggffhhhh###`````````",
"```````````#hhhhhhfgggghhhhgggffhhhh###`````````",
"```````````#ggghhhiiiiijjjjiiiiihggg###`````````",
"```````````#eeeiiiijjjjjjjjjjjiiieee###`````````",
"```````````#eeeiiiijjjjjjjjjjjiiieee###`````````",
"````````````###eeefffffggggfffffe###````````````",
"````````````###eeefffffggggfffffe###..``````````",
"````````````###eeefffffggggfffffe###..``````````",
"````````````###eeefffffggggfffffe###..``````````",
"````````````###gggkllllhhhhlllkkg###..``````````",
"````````````###gggkllllhhhhlllkkg###..``````````",
"````````````lllfffgmmmmggggmmmggflll..``````````",
"````````````lllfffgmmmmggggmmmggflll..``````````",
"```````````lhhhhhhfnnnnnnnnnnnffhhhhlll`````````",
"```````````lhhhhhhfnnnnnnnnnnnffhhhhlll`````````",
"```````````lhhhhhhfnnnnnnnnnnnffhhhhlll`````````",
"````````lllmmmmlllghhhhhhhhhhhgglmmmmmmlll``````",
"````````lllmmmmlllghhhhhhhhhhhgglmmmmmmlll``````",
"``````..lllmooolllgggggggggggggglooommmlll.`````",
"`````.cclllmooolllgggggggggggggglooommmlllc..```",
"`````.cclllmooolllgggggggggggggglooommmlllc..```",
"`````.ccccplllllllfgggggggggggfflllllllcccc..```",
"`````.qqqqqq.``lllsssssllllssssslrr`..qqqqq..```",
"`````.qqqqqq.``lllsssssllllssssslrr`..qqqqq..```",
"``````......```lllsssssllllsssssl`````.....`````",
"``````......```lllsssssllllsssssl`````.....`````",
"```````````````llltttttlllltttttl```````````````"
};
