/* XPM */
static char *exit2_xpm[] = {
/* width height num_colors chars_per_pixel */
"    48    48       16            1",
/* colors */
"` c #4e6338",
". c #151560",
"# c #f8f8a0",
"a c #f8a800",
"b c #279070",
"c c #67c078",
"d c #90d898",
"e c #f86000",
"f c #f8e027",
"g c #f8f8e0",
"h c #e0c0f8",
"i c #c0a0f8",
"j c #a0f8a8",
"k c #a080f8",
"l c #8060f8",
"m c #2e2722",
/* pixels */
"``````````````````...```..``...`````````````````",
"``````````````````...```..``...`````````````````",
"```````````````...````..##.````....`````````````",
"`````````````..```..`.aabba..`.````.````````````",
"`````````````..```..`.aabba..`.````.````````````",
"`````````````..```..`...cc...`.````.````````````",
"````````````````..`.....dd....`..```````````````",
"`````````````..```......dd.....````.````````````",
"`````````````..`....``..cc.```...``.````````````",
"`````````````.....`...eebbe...`.....````````````",
"````````````.ff.```...eebbe...```..f..``````````",
"````````````.ff.``.ff.aa##a..f..`..f..``````````",
"````````````.ff...e##effeefee#ee...f..``````````",
"````````````.ff.eeaffe..gg.eefaae..f..``````````",
"`````````````...eeaffe..gg.eefaae...````````````",
"````````````....##a...bbggg...aa#.....``````````",
"````````````....##..`.bbggg..`..#.....``````````",
"````````````....##..`.bbggg..`..#.....``````````",
"`````````````.....```.bbggg..``.....````````````",
"`````````````.........ccggh.........````````````",
"````````````....``....ccggh.....`.....``````````",
"````````````...e..b...ddhhi...bb.ee...``````````",
"````````````.ff....``.jjiik..`.....f..``````````",
"````````````.ff....``.jjiik..`.....f..``````````",
"````````````...f....`.ggkkl..`.`.ff...``````````",
"`````````````..f...``.jjllk..`...ff.````````````",
"`````````````..f...``.jjllk..`...ff.````````````",
"````````````..........ddkki....`......``````````",
"````````````.```....`.cciih..`...```..``````````",
"````````````.......``.cciih..`........``````````",
"````````````..........bbiig...........``````````",
"````````````........`.bbhhh..`........``````````",
"````````````.......g..bbhhh...........``````````",
"````````````..........bbggk...........``````````",
"````````````...fgg.gg.bbggl..g..gff...``````````",
"````````````...fgg.gg.bbggl..g..gff...``````````",
"````````````...c.....j..kk.jj....cc...``````````",
"````````````...c.....j..kk.jj....cc...``````````",
"````````````...d..``..``..`...``.dd...``````````",
"``````..`.``eee.````mmmm..mmmm```..eee`..`.`````",
"`````.ff....fee.mmmmmmmm..mmmmmmm..eff....f..```",
"`````.f..f...ffb..mmmmmmmmmmmmmm.bbf...ff.f..```",
"`````.f..fffbbb.mmmmmmmmmmmmmmmmm..bbbfff.f..```",
"`````.c..fffbbb.mmmmmmmmmmmmmmmmm..bbbfff.c..```",
"`````.c..cccc..mmmmmmmmmmmmmmmmmmmm.ccccc.c..```",
"``````.......```mmmmmmmmmmmmmmmmm```.......`````",
"``````.......```mmmmmmmmmmmmmmmmm```.......`````",
"````````````````````mmmmmmmmmm``````````````````"
};
