/* XPM */
static char *exit1_xpm[] = {
/* width height num_colors chars_per_pixel */
"    48    48       32            1",
/* colors */
"` c #4e6338",
". c #151560",
"# c #f8e027",
"a c #f86000",
"b c #279070",
"c c #90d898",
"d c #f8f8e0",
"e c #67c078",
"f c #a0f8a8",
"g c #2e2722",
"h c #2e2b22",
"i c #322b27",
"j c #322b27",
"k c #322b22",
"l c #352e2b",
"m c #352e2e",
"n c #352b2b",
"o c #000000",
"p c #000000",
"q c #000000",
"r c #000000",
"s c #000000",
"t c #000000",
"u c #000000",
"v c #000000",
"w c #000000",
"x c #0000d0",
"y c #c19e2e",
"z c #f97f00",
"A c #00adf2",
"B c #fd32f9",
"C c #7f0000",
/* pixels */
"``````````````````...```````...`````````````````",
"``````````````````...```````...`````````````````",
"```````````````...`````````````....`````````````",
"`````````````..```..``````````.````.````````````",
"`````````````..```..``````````.````.````````````",
"`````````````..```..``````````.````.````````````",
"````````````````..`````````````..```````````````",
"`````````````..```..``````````.````.````````````",
"`````````````..```..``````````.````.````````````",
"`````````````..`..``.```````..`..``.````````````",
"````````````.##.`````````````````..#..``````````",
"````````````.##.`````````````````..#..``````````",
"````````````.##.`````````````````..#..``````````",
"````````````.##.`````````````````..#..``````````",
"`````````````..````````````````````.````````````",
"````````````.```....`.......``...```..``````````",
"````````````.```....`.......``...```..``````````",
"````````````.aa.bb..`..cccc.``.bb..a..``````````",
"`````````````.....`````....````.....````````````",
"`````````````.....`````....````.....````````````",
"````````````.##.`````````````````..#..``````````",
"````````````.##.`````````````````..#..``````````",
"````````````.##...`````````````....#..``````````",
"````````````.##...`````````````....#..``````````",
"````````````....``..``````````.``.....``````````",
"```````````````...`````````````....`````````````",
"```````````````...`````````````....`````````````",
"````````````.`````..``````````.`````..``````````",
"````````````.`````..``````````.`````..``````````",
"````````````......`````````````.......``````````",
"````````````........``````````........``````````",
"````````````........``````````........``````````",
"````````````.##d..dd.```````..d..dd#..``````````",
"````````````.ee.aaaaf..````.ffaaa..e..``````````",
"````````````.ee.aaaaf..````.ffaaa..e..``````````",
"````````````.ee.....f..````.ff.....e..``````````",
"````````````.ee.....f..````.ff.....e..``````````",
"````````````.cc.````.```````..```..c..``````````",
"````````````.cc.````.```````..```..c..``````````",
"``````..````a..`````gggggggggg`````.aa````.`````",
"`````.##....#bb.gggggggggghijgggg..b##....#..```",
"`````.##....#bb.ggggggggggkmngggg..b##....#..```",
"`````.####bbb..ggggggggggghijgggggg.bbb####..```",
"`````.eeeeee.``gggggggggggggggggggg`..eeeee..```",
"`````.eeeeee.``gggggggggggggggggggg`..eeeee..```",
"``````......````ggggggggggggggggg`````.....`````",
"``````......````ggggggggggggggggg`````.....`````",
"````````````````````gggggggggg``````````````````"
};
