/* XPM */
static char *wall2_xpm[] = {
/* width height num_colors chars_per_pixel */
"    48    48       16            1",
/* colors */
"` c #4e6338",
". c #151515",
"# c #93c146",
"a c #598c46",
"b c #77a946",
"c c #356b3d",
"d c #22402e",
"e c #2e2215",
"f c #4e3815",
"g c #654e1c",
"h c #7b652e",
"i c #000000",
"j c #000000",
"k c #000000",
"l c #000000",
"m c #000000",
/* pixels */
"`````````````````````......`````````````````````",
"`````````````````````......`````````````````````",
"`````````````````````......`````````````````````",
"``````````````````...######...``````````````````",
"``````````````````...######...``````````````````",
"``````````````````...######...``````````````````",
"```````````````...aaa######aaa...```````````````",
"```````````````...aaa######aaa...```````````````",
"```````````````...aaa######aaa...```````````````",
"```````````````...bbbbbbbbbbbb...```````````````",
"```````````````...bbbbbbbbbbbb...```````````````",
"```````````````...bbbbbbbbbbbb...```````````````",
"````````````...cccaaabbbbbbaaaccc...````````````",
"````````````...cccaaabbbbbbaaaccc...````````````",
"````````````...cccaaabbbbbbaaaccc...````````````",
"`````````...dddaaaaaaaaaaaaaaaaaaddd...`````````",
"`````````...dddaaaaaaaaaaaaaaaaaaddd...`````````",
"`````````...dddaaaaaaaaaaaaaaaaaaddd...`````````",
"`````````...ccccccaaaaaaaaaaaacccccc...`````````",
"`````````...ccccccaaaaaaaaaaaacccccc...`````````",
"`````````...ccccccaaaaaaaaaaaacccccc...`````````",
"`````````...cccccccccccccccccccccccc...`````````",
"`````````...cccccccccccccccccccccccc...`````````",
"`````````...cccccccccccccccccccccccc...`````````",
"`````````...dddccccccccccccccccccddd...`````````",
"`````````...dddccccccccccccccccccddd...`````````",
"`````````...dddccccccccccccccccccddd...`````````",
"`````````...dddddddddddddddddddddddd...`````````",
"`````````...dddddddddddddddddddddddd...`````````",
"`````````...dddddddddddddddddddddddd...`````````",
"````````````...dddddddddddddddddd...````````````",
"````````````...dddddddddddddddddd...````````````",
"````````````...dddddddddddddddddd...````````````",
"```````````````...eeeffffffeee...```````````````",
"```````````````...eeeffffffeee...```````````````",
"```````````````...eeeffffffeee...```````````````",
"```````````````eeefffggggggfffeee```````````````",
"```````````````eeefffggggggfffeee```````````````",
"```````````````eeefffggggggfffeee```````````````",
"``````````````````eeehhhhhheee``````````````````",
"``````````````````eeehhhhhheee``````````````````",
"``````````````````eeehhhhhheee``````````````````",
"````````````````````````````````````````````````",
"````````````````````````````````````````````````",
"````````````````````````````````````````````````",
"````````````````````````````````````````````````",
"````````````````````````````````````````````````",
"````````````````````````````````````````````````"
};
