/* XPM */
static char *coin_xpm[] = {
/* width height num_colors chars_per_pixel */
"    64    64       16            1",
/* colors */
"` c #4e6338",
". c #957215",
"# c #cda332",
"a c #d3ae4a",
"b c #d0a93e",
"c c #d9b962",
"d c #d6b356",
"e c #dfc47a",
"f c #dcbe6e",
"g c #e2c986",
"h c #e8d49e",
"i c #a27c17",
"j c #e5ce92",
"k c #af8619",
"l c #bc901b",
"m c #000000",
/* pixels */
"````````````````````````````````````````````````````````````````",
"````````````````````````````````````````````````````````````````",
"````````````````````````````````````````````````````````````````",
"````````````````````````````````````````````````````````````````",
"````````````````````````````````````````````````````````````````",
"````````````````````````````````````````````````````````````````",
"````````````````````````````````````````````````````````````````",
"````````````````````````````````````````````````````````````````",
"````````````````````````````````````````````````````````````````",
"````````````````````````````````````````````````````````````````",
"````````````````````````````````````````````````````````````````",
"````````````````````````````````````````````````````````````````",
"````````````````````````````````````````````````````````````````",
"````````````````````````````````````````````````````````````````",
"````````````````````````````````````````````````````````````````",
"````````````````````````````````````````````````````````````````",
"```````````````````````````...........``````````````````````````",
"```````````````````````````...........``````````````````````````",
"`````````````````````````..####.##aaaa..````````````````````````",
"`````````````````````````..####.##aaaa..````````````````````````",
"```````````````````````..####..#######aa..``````````````````````",
"`````````````````````..####..###......##aa..````````````````````",
"`````````````````````..####..###......##aa..````````````````````",
"`````````````````````..##..####.##aabb..bb..````````````````````",
"`````````````````````..##..####.##aabb..bb..````````````````````",
"```````````````````..####..####.####aa..##cc..``````````````````",
"```````````````````..####..####.####aa..##cc..``````````````````",
"```````````````````..####..##..#####bbdd..ee..``````````````````",
"```````````````````..####..##..#####bbdd..ee..``````````````````",
"```````````````````..####..##..#######ff..gg..``````````````````",
"```````````````````..####..##..#######ff..gg..``````````````````",
"```````````````````..####..##..#######ee..hhii``````````````````",
"```````````````````..####..##..#######ee..hhii``````````````````",
"```````````````````ii####..##..#######jj..hh..``````````````````",
"```````````````````ii####..##..#######jj..hh..``````````````````",
"```````````````````kk####..##..#######jj..jj..``````````````````",
"```````````````````ii####..####.####cc..##hh..``````````````````",
"```````````````````ii####..####.####cc..##hh..``````````````````",
"`````````````````````..##..####.##bbbb..jjll````````````````````",
"`````````````````````..##..####.##bbbb..jjll````````````````````",
"`````````````````````..####..###......##cc..````````````````````",
"`````````````````````..####..###......##cc..````````````````````",
"```````````````````````..####..#######cc..``````````````````````",
"```````````````````````..####..#######cc..``````````````````````",
"`````````````````````````..####.####aaii````````````````````````",
"`````````````````````````..####.####aaii````````````````````````",
"```````````````````````````...........``````````````````````````",
"```````````````````````````...........``````````````````````````",
"````````````````````````````````````````````````````````````````",
"````````````````````````````````````````````````````````````````",
"````````````````````````````````````````````````````````````````",
"````````````````````````````````````````````````````````````````",
"````````````````````````````````````````````````````````````````",
"````````````````````````````````````````````````````````````````",
"````````````````````````````````````````````````````````````````",
"````````````````````````````````````````````````````````````````",
"````````````````````````````````````````````````````````````````",
"````````````````````````````````````````````````````````````````",
"````````````````````````````````````````````````````````````````",
"````````````````````````````````````````````````````````````````",
"````````````````````````````````````````````````````````````````",
"````````````````````````````````````````````````````````````````",
"````````````````````````````````````````````````````````````````",
"````````````````````````````````````````````````````````````````"
};
