/* XPM */
static char *down2_xpm[] = {
/* width height num_colors chars_per_pixel */
"    64    64       32            1",
/* colors */
"` c #4e6338",
". c #101060",
"# c #000000",
"a c #c6a900",
"b c #7c5500",
"c c #f8e028",
"d c #422200",
"e c #1e1e1e",
"f c #363636",
"g c #4d4c4b",
"h c #7d7b76",
"i c #a29e96",
"j c #bebbb5",
"k c #e8e8e8",
"l c #040404",
"m c #f6a954",
"n c #84482a",
"o c #d97f40",
"p c #289070",
"q c #68c078",
"r c #302820",
"s c #3f3013",
"t c #5d4717",
"u c #000000",
"v c #000000",
"w c #000000",
"x c #0000d0",
"y c #c19e30",
"z c #f97f00",
"A c #00adf2",
"B c #fd32f9",
"C c #7f0000",
/* pixels */
"````````````````````````....``#####``....```````````````````````",
"````````````````````````....``#####``....```````````````````````",
"```````````````````.....``````#####``````.....``````````````````",
"```````````````````.....``````#####``````.....``````````````````",
"`````````````````..`````..````#####````..`````..````````````````",
"`````````````````..`````.#####aaaaa####..`````..````````````````",
"`````````````````..`````.#####aaaaa####..`````..````````````````",
"`````````````````````..##bbbbbaaaaabbbb###..````````````````````",
"`````````````````````..##bbbbbaaaaabbbb###..````````````````````",
"`````````````````..````##bbbbbaaaaabbbb###````..````````````````",
"`````````````````..````##bbbbbbbbbbbbbb###````..````````````````",
"`````````````````..``..##bbbbbbbbbbbbbb###..``..````````````````",
"`````````````````..``..##bbbbbbbbbbbbbb###..``..````````````````",
"```````````````..cc..``##dddddbbbbbdddd###``..cc..``````````````",
"```````````````..cc..``##dddddbbbbbdddd###``..cc..``````````````",
"```````````````..cc..``##dddddbbbbbdddd###``..cc..``````````````",
"```````````````..cc..``##dddddbbbbbdddd###``..cc..``````````````",
"```````````````..cc.###eeeeeeedddddeeeeeee##..cc..``````````````",
"`````````````````..`###eeeeeeedddddeeeeeee##``..````````````````",
"````````````````####eeeffggggghhhhhggggfffee####````````````````",
"```````````````.####eeeffggggghhhhhggggfffee####..``````````````",
"```````````````.####eeeffggggghhhhhggggfffee####..``````````````",
"```````````````.####eeeffggggghhhhhggggfffee####..``````````````",
"``````````````##eeeefffgggggggiiiiigggggggffeeee####````````````",
"``````````````##eeeefffgggggggiiiiigggggggffeeee####````````````",
"``````````````##eeeefffgggggggiiiiigggggggffeeee####````````````",
"``````````````##hhhhhhhffggggghhhhhggggfffhhhhhh####````````````",
"``````````````##hhhhhhhffggggghhhhhggggfffhhhhhh####````````````",
"``````````````##hhhhhhhffggggghhhhhggggfffhhhhhh####````````````",
"``````````````##hhhhhhhffggggghhhhhggggfffhhhhhh####````````````",
"``````````````##gggghhhiiiiiiijjjjjiiiiiiihhgggg####````````````",
"``````````````##gggghhhiiiiiiijjjjjiiiiiiihhgggg####````````````",
"``````````````##eeeeiiiiijjjjjjjjjjjjjjiiiiieeee####````````````",
"``````````````##eeeeiiiiijjjjjjjjjjjjjjiiiiieeee####````````````",
"````````````````####eeefffffffgggggfffffffee####````````````````",
"```````````````.####eeefffffffgggggfffffffee####..``````````````",
"```````````````.####eeefffffffgggggfffffffee####..``````````````",
"```````````````.####eeefffffffgggggfffffffee####..``````````````",
"```````````````.####eeefffffffgggggfffffffee####..``````````````",
"```````````````.####gggkklllllhhhhhllllkkkgg####..``````````````",
"```````````````.####gggkklllllhhhhhllllkkkgg####..``````````````",
"```````````````.####gggkklllllhhhhhllllkkkgg####..``````````````",
"```````````````.llllfffggmmmmmgggggmmmmgggffllll..``````````````",
"```````````````.llllfffggmmmmmgggggmmmmgggffllll..``````````````",
"```````````````.llllfffggmmmmmgggggmmmmgggffllll..``````````````",
"``````````````llhhhhhhhffnnnnnnnnnnnnnnfffhhhhhhllll````````````",
"``````````````llhhhhhhhffnnnnnnnnnnnnnnfffhhhhhhllll````````````",
"``````````````llhhhhhhhffnnnnnnnnnnnnnnfffhhhhhhllll````````````",
"``````````````llhhhhhhhffnnnnnnnnnnnnnnfffhhhhhhllll````````````",
"``````````llllmmmmmmlllgghhhhhhhhhhhhhhgggllmmmmmmmmlll`````````",
"``````````llllmmmmmmlllgghhhhhhhhhhhhhhgggllmmmmmmmmlll`````````",
"````````..llllmmoooolllggggggggggggggggggglloooommmmlll..```````",
"````````..llllmmoooolllggggggggggggggggggglloooommmmlll..```````",
"``````..ccllllmmoooolllggggggggggggggggggglloooommmmlllcc..`````",
"``````..ccllllmmoooolllggggggggggggggggggglloooommmmlllcc..`````",
"``````..cccccplllllllllffggggggggggggggfffllllllllllccccc..`````",
"``````..cccccplllllllllffggggggggggggggfffllllllllllccccc..`````",
"``````..qqqqqqq..``rlllssssssslllllsssssssllrr``..qqqqqqq..`````",
"``````..qqqqqqq..``rlllssssssslllllsssssssllrr``..qqqqqqq..`````",
"``````..qqqqqqq..``rlllssssssslllllsssssssllrr``..qqqqqqq..`````",
"````````.......`````lllssssssslllllsssssssll``````.......```````",
"````````.......`````lllssssssslllllsssssssll``````.......```````",
"````````````````````llltttttttllllltttttttll````````````````````",
"````````````````````llltttttttllllltttttttll````````````````````"
};
