/* XPM */
static char *down1_xpm[] = {
/* width height num_colors chars_per_pixel */
"    64    64       32            1",
/* colors */
"` c #4e6338",
". c #000000",
"# c #c6a900",
"a c #7c5500",
"b c #422200",
"c c #1e1e1e",
"d c #363636",
"e c #4d4c4b",
"f c #7d7b76",
"g c #a29e96",
"h c #bebbb5",
"i c #e8e8e8",
"j c #040404",
"k c #f6a954",
"l c #84482a",
"m c #d97f40",
"n c #3f3013",
"o c #5d4717",
"p c #000000",
"q c #000000",
"r c #000000",
"s c #000000",
"t c #000000",
"u c #000000",
"v c #000000",
"w c #000000",
"x c #0000d0",
"y c #c19e30",
"z c #f97f00",
"A c #00adf2",
"B c #fd32f9",
"C c #7f0000",
/* pixels */
"``````````````````````````````.....`````````````````````````````",
"``````````````````````````````.....`````````````````````````````",
"``````````````````````````````.....`````````````````````````````",
"``````````````````````````````.....`````````````````````````````",
"``````````````````````````````.....`````````````````````````````",
"`````````````````````````.....#####....`````````````````````````",
"`````````````````````````.....#####....`````````````````````````",
"```````````````````````..aaaaa#####aaaa...``````````````````````",
"```````````````````````..aaaaa#####aaaa...``````````````````````",
"```````````````````````..aaaaa#####aaaa...``````````````````````",
"```````````````````````..aaaaaaaaaaaaaa...``````````````````````",
"```````````````````````..aaaaaaaaaaaaaa...``````````````````````",
"```````````````````````..aaaaaaaaaaaaaa...``````````````````````",
"```````````````````````..bbbbbaaaaabbbb...``````````````````````",
"```````````````````````..bbbbbaaaaabbbb...``````````````````````",
"```````````````````````..bbbbbaaaaabbbb...``````````````````````",
"```````````````````````..bbbbbaaaaabbbb...``````````````````````",
"````````````````````...cccccccbbbbbccccccc..````````````````````",
"````````````````````...cccccccbbbbbccccccc..````````````````````",
"````````````````....cccddeeeeefffffeeeedddcc....````````````````",
"````````````````....cccddeeeeefffffeeeedddcc....````````````````",
"````````````````....cccddeeeeefffffeeeedddcc....````````````````",
"````````````````....cccddeeeeefffffeeeedddcc....````````````````",
"``````````````..ccccdddeeeeeeegggggeeeeeeeddcccc....````````````",
"``````````````..ccccdddeeeeeeegggggeeeeeeeddcccc....````````````",
"``````````````..ccccdddeeeeeeegggggeeeeeeeddcccc....````````````",
"``````````````..fffffffddeeeeefffffeeeedddffffff....````````````",
"``````````````..fffffffddeeeeefffffeeeedddffffff....````````````",
"``````````````..fffffffddeeeeefffffeeeedddffffff....````````````",
"``````````````..fffffffddeeeeefffffeeeedddffffff....````````````",
"``````````````..eeeefffggggggghhhhhgggggggffeeee....````````````",
"``````````````..eeeefffggggggghhhhhgggggggffeeee....````````````",
"``````````````..ccccggggghhhhhhhhhhhhhhgggggcccc....````````````",
"``````````````..ccccggggghhhhhhhhhhhhhhgggggcccc....````````````",
"````````````````....cccdddddddeeeeedddddddcc....````````````````",
"````````````````....cccdddddddeeeeedddddddcc....````````````````",
"````````````````....cccdddddddeeeeedddddddcc....````````````````",
"````````````````....cccdddddddeeeeedddddddcc....````````````````",
"````````````````....cccdddddddeeeeedddddddcc....````````````````",
"````````````````....eeeiijjjjjfffffjjjjiiiee....````````````````",
"````````````````....eeeiijjjjjfffffjjjjiiiee....````````````````",
"````````````````....eeeiijjjjjfffffjjjjiiiee....````````````````",
"````````````````jjjjdddeekkkkkeeeeekkkkeeeddjjjj````````````````",
"````````````````jjjjdddeekkkkkeeeeekkkkeeeddjjjj````````````````",
"````````````````jjjjdddeekkkkkeeeeekkkkeeeddjjjj````````````````",
"``````````````jjfffffffddlllllllllllllldddffffffjjjj````````````",
"``````````````jjfffffffddlllllllllllllldddffffffjjjj````````````",
"``````````````jjfffffffddlllllllllllllldddffffffjjjj````````````",
"``````````````jjfffffffddlllllllllllllldddffffffjjjj````````````",
"``````````jjjjkkkkkkjjjeeffffffffffffffeeejjkkkkkkkkjjj`````````",
"``````````jjjjkkkkkkjjjeeffffffffffffffeeejjkkkkkkkkjjj`````````",
"``````````jjjjkkmmmmjjjeeeeeeeeeeeeeeeeeeejjmmmmkkkkjjj`````````",
"``````````jjjjkkmmmmjjjeeeeeeeeeeeeeeeeeeejjmmmmkkkkjjj`````````",
"``````````jjjjkkmmmmjjjeeeeeeeeeeeeeeeeeeejjmmmmkkkkjjj`````````",
"``````````jjjjkkmmmmjjjeeeeeeeeeeeeeeeeeeejjmmmmkkkkjjj`````````",
"``````````````jjjjjjjjjddeeeeeeeeeeeeeedddjjjjjjjjjj````````````",
"``````````````jjjjjjjjjddeeeeeeeeeeeeeedddjjjjjjjjjj````````````",
"````````````````````jjjnnnnnnnjjjjjnnnnnnnjj````````````````````",
"````````````````````jjjnnnnnnnjjjjjnnnnnnnjj````````````````````",
"````````````````````jjjnnnnnnnjjjjjnnnnnnnjj````````````````````",
"````````````````````jjjnnnnnnnjjjjjnnnnnnnjj````````````````````",
"````````````````````jjjnnnnnnnjjjjjnnnnnnnjj````````````````````",
"````````````````````jjjooooooojjjjjooooooojj````````````````````",
"````````````````````jjjooooooojjjjjooooooojj````````````````````"
};
