/* XPM */
static char *left1_xpm[] = {
/* width height num_colors chars_per_pixel */
"    64    64       32            1",
/* colors */
"` c #4e6338",
". c #000000",
"# c #c6a900",
"a c #7c5500",
"b c #422200",
"c c #1e1e1e",
"d c #363636",
"e c #4d4c4b",
"f c #7d7b76",
"g c #a29e96",
"h c #bebbb5",
"i c #040404",
"j c #e8e8e8",
"k c #f6a954",
"l c #d97f40",
"m c #3f3013",
"n c #5d4717",
"o c #000000",
"p c #000000",
"q c #000000",
"r c #000000",
"s c #000000",
"t c #000000",
"u c #000000",
"v c #000000",
"w c #000000",
"x c #0000d0",
"y c #c19e30",
"z c #f97f00",
"A c #00adf2",
"B c #fd32f9",
"C c #7f0000",
/* pixels */
"`````````````````````````````.............``````````````````````",
"`````````````````````````````.............``````````````````````",
"`````````````````````````````.............``````````````````````",
"``````````````````````````...##########aaa...```````````````````",
"``````````````````````````...##########aaa...```````````````````",
"``````````````````````````...##########aaa...```````````````````",
"``````````````````````````...##########aaa...```````````````````",
"```````````````````````...aaa#############aaa...````````````````",
"```````````````````````...aaa#############aaa...````````````````",
"```````````````````````...aaa#############aaa...````````````````",
"```````````````````````...aaaaaaaaaaaaabbbbbbbbb...`````````````",
"```````````````````````...aaaaaaaaaaaaabbbbbbbbb...`````````````",
"```````````````````````...aaaaaaaaaaaaabbbbbbbbb...`````````````",
"```````````````````````...bbbaaaaaabbbbbbbbbbbbb...`````````````",
"```````````````````````...bbbaaaaaabbbbbbbbbbbbb...`````````````",
"```````````````````````...bbbaaaaaabbbbbbbbbbbbb...`````````````",
"````````````````````......ccccccbbbccccccc.........`````````````",
"````````````````````......ccccccbbbccccccc.........`````````````",
"````````````````````......ccccccbbbccccccc.........`````````````",
"````````````````....dddeeeffffffeeedddddddccc...````````````````",
"````````````````....dddeeeffffffeeedddddddccc...````````````````",
"````````````````....dddeeeffffffeeedddddddccc...````````````````",
"````````````````....dddeeeffffffeeedddddddccc...````````````````",
"`````````````...ddddeeeggggggeeeeeeeeeedddcccccc...`````````````",
"`````````````...ddddeeeggggggeeeeeeeeeedddcccccc...`````````````",
"`````````````...ddddeeeggggggeeeeeeeeeedddcccccc...`````````````",
"`````````````...gggghhhfffeeeeeedddfffffffeeeeee...`````````````",
"`````````````...gggghhhfffeeeeeedddfffffffeeeeee...`````````````",
"`````````````...gggghhhfffeeeeeedddfffffffeeeeee...`````````````",
"`````````````...hhhhhhhhhhgggggggggffffeeeeeeddd...`````````````",
"`````````````...hhhhhhhhhhgggggggggffffeeeeeeddd...`````````````",
"`````````````...hhhhhhhhhhgggggggggffffeeeeeeddd...`````````````",
"`````````````...ddddhhhhhhhhhggggggggggccccccccc...`````````````",
"`````````````...ddddhhhhhhhhhggggggggggccccccccc...`````````````",
"`````````````...ddddhhhhhhhhhggggggggggccccccccc...`````````````",
"````````````````....eeeeeeeeedddcccccccccccccccc...`````````````",
"````````````````....eeeeeeeeedddcccccccccccccccc...`````````````",
"````````````````....eeeeeeeeedddcccccccccccccccc...`````````````",
"````````````````....eeeeeeeeedddcccccccccccccccc...`````````````",
"````````````````....fffiiijjjeeedddddddcccccc...````````````````",
"````````````````....fffiiijjjeeedddddddcccccc...````````````````",
"````````````````....fffiiijjjeeedddddddcccccc...````````````````",
"````````````````....eeekkkeeedddddddddddddiii```````````````````",
"````````````````....eeekkkeeedddddddddddddiii```````````````````",
"````````````````....eeekkkeeedddddddddddddiii```````````````````",
"````````````````....iiiddddddffffffeeeeiii``````````````````````",
"````````````````....iiiddddddffffffeeeeiii``````````````````````",
"````````````````....iiiddddddffffffeeeeiii``````````````````````",
"````````````````````iiieeeeeeffffffeeeeiii``````````````````````",
"````````````````````iiieeeeeeffffffeeeeiii``````````````````````",
"````````````````````iiieeeeeeffffffeeeeiii``````````````````````",
"````````````````````iiieeeiiikkkkkkiiiiiii``````````````````````",
"````````````````````iiieeeiiikkkkkkiiiiiii``````````````````````",
"````````````````````iiieeeiiikkkkkkiiiiiii``````````````````````",
"````````````````````iiieeeiiikkkkkkiiiiiii``````````````````````",
"````````````````````iiidddiiilllkkkiiiiiii``````````````````````",
"````````````````````iiidddiiilllkkkiiiiiii``````````````````````",
"````````````````````iiidddiiilllkkkiiiiiii``````````````````````",
"```````````````````````iiimmmiiiiiiiiii`````````````````````````",
"```````````````````````iiimmmiiiiiiiiii`````````````````````````",
"```````````````````````iiimmmiiiiiiiiii`````````````````````````",
"```````````````````````iiinnnnnnnnniiii`````````````````````````",
"```````````````````````iiinnnnnnnnniiii`````````````````````````",
"```````````````````````iiinnnnnnnnniiii`````````````````````````"
};
