/* XPM */
static char *left2_xpm[] = {
/* width height num_colors chars_per_pixel */
"    64    64       32            1",
/* colors */
"` c #4e6338",
". c #101060",
"# c #000000",
"a c #c6a900",
"b c #7c5500",
"c c #422200",
"d c #f8e028",
"e c #1e1e1e",
"f c #363636",
"g c #4d4c4b",
"h c #7d7b76",
"i c #a29e96",
"j c #bebbb5",
"k c #040404",
"l c #e8e8e8",
"m c #f6a954",
"n c #f8f8e0",
"o c #68c078",
"p c #f86000",
"q c #90d898",
"r c #289070",
"s c #302820",
"t c #d97f40",
"u c #3f3013",
"v c #5d4717",
"w c #000000",
"x c #0000d0",
"y c #c19e30",
"z c #f97f00",
"A c #00adf2",
"B c #fd32f9",
"C c #7f0000",
/* pixels */
"````````````````````````....`#############``````````````````````",
"````````````````````````....`#############``````````````````````",
"```````````````````.....`````#############....``````````````````",
"```````````````````.....``###aaaaaaaaaabbb###.``````````````````",
"`````````````````..`````..###aaaaaaaaaabbb###`..````````````````",
"`````````````````..`````..###aaaaaaaaaabbb###`..````````````````",
"`````````````````..`````..###aaaaaaaaaabbb###`..````````````````",
"`````````````````````..###bbbaaaaaaaaaaaaabbb###````````````````",
"`````````````````````..###bbbaaaaaaaaaaaaabbb###````````````````",
"`````````````````..````###bbbaaaaaaaaaaaaabbb###````````````````",
"`````````````````..````###bbbbbbbbbbbbbccccccccc###`````````````",
"`````````````````..``..###bbbbbbbbbbbbbccccccccc###`````````````",
"`````````````````..``..###bbbbbbbbbbbbbccccccccc###`````````````",
"```````````````..dd..``###cccbbbbbbccccccccccccc###`````````````",
"```````````````..dd..``###cccbbbbbbccccccccccccc###`````````````",
"```````````````..dd..``###cccbbbbbbccccccccccccc###`````````````",
"```````````````..dd.######eeeeeeccceeeeeee#########`````````````",
"```````````````..dd.######eeeeeeccceeeeeee#########`````````````",
"`````````````````..`######eeeeeeccceeeeeee#########`````````````",
"````````````````####fffggghhhhhhgggfffffffeee###````````````````",
"```````````````.####fffggghhhhhhgggfffffffeee###..``````````````",
"```````````````.####fffggghhhhhhgggfffffffeee###..``````````````",
"```````````````.####fffggghhhhhhgggfffffffeee###..``````````````",
"`````````````###ffffgggiiiiiiggggggggggfffeeeeee###`````````````",
"`````````````###ffffgggiiiiiiggggggggggfffeeeeee###`````````````",
"`````````````###ffffgggiiiiiiggggggggggfffeeeeee###`````````````",
"`````````````###iiiijjjhhhggggggfffhhhhhhhgggggg###`````````````",
"`````````````###iiiijjjhhhggggggfffhhhhhhhgggggg###`````````````",
"`````````````###iiiijjjhhhggggggfffhhhhhhhgggggg###`````````````",
"`````````````###jjjjjjjjjjiiiiiiiiihhhhggggggfff###`````````````",
"`````````````###jjjjjjjjjjiiiiiiiiihhhhggggggfff###`````````````",
"`````````````###jjjjjjjjjjiiiiiiiiihhhhggggggfff###`````````````",
"`````````````###ffffjjjjjjjjjiiiiiiiiiieeeeeeeee###`````````````",
"`````````````###ffffjjjjjjjjjiiiiiiiiiieeeeeeeee###`````````````",
"`````````````###ffffjjjjjjjjjiiiiiiiiiieeeeeeeee###`````````````",
"```````````````.####gggggggggfffeeeeeeeeeeeeeeee###`````````````",
"```````````````.####gggggggggfffeeeeeeeeeeeeeeee###`````````````",
"```````````````.####gggggggggfffeeeeeeeeeeeeeeee###`````````````",
"```````````````.####gggggggggfffeeeeeeeeeeeeeeee###`````````````",
"```````````````.####hhhkkklllgggfffffffeeeeee###..``````````````",
"```````````````.####hhhkkklllgggfffffffeeeeee###..``````````````",
"```````````````.####hhhkkklllgggfffffffeeeeee###..``````````````",
"```````````````.####gggmmmgggfffffffffffffkkkndd..``````````````",
"```````````````.####gggmmmgggfffffffffffffkkkndd..``````````````",
"```````````````.####gggmmmgggfffffffffffffkkk.oo..``````````````",
"```````````````.####kkkffffffhhhhhhggggkkkpp..oo..``````````````",
"```````````````.####kkkffffffhhhhhhggggkkk....oo..``````````````",
"```````````````.####kkkffffffhhhhhhggggkkk....oo..``````````````",
"```````````````..oo.kkkgggggghhhhhhggggkkk....oo..``````````````",
"```````````````..qq.kkkgggggghhhhhhggggkkk``..qq..``````````````",
"```````````````..qq.kkkgggggghhhhhhggggkkk``..qq..``````````````",
"````````..`````pp..`kkkgggkkkmmmmmmkkkkkkk````..pp`````..```````",
"````````..`````pp..`kkkgggkkkmmmmmmkkkkkkk````..pp`````..```````",
"``````..dd.....ddrr.kkkgggkkkmmmmmmkkkkkkkss..rrdd.....dd..`````",
"``````..dd.....ddrr.kkkgggkkkmmmmmmkkkkkkkss..rrdd.....dd..`````",
"``````..dddddrrrr..skkkfffkkktttmmmkkkkkkkssss..rrrrddddd..`````",
"``````..dddddrrrr..skkkfffkkktttmmmkkkkkkkssss..rrrrddddd..`````",
"``````..ooooooo..``skkkfffkkktttmmmkkkkkkkssss``..ooooooo..`````",
"``````..ooooooo..``sssskkkuuukkkkkkkkkksssssss``..ooooooo..`````",
"``````..ooooooo..``sssskkkuuukkkkkkkkkksssssss``..ooooooo..`````",
"````````.......``````sskkkuuukkkkkkkkkksssss``````.......```````",
"````````.......``````sskkkvvvvvvvvvkkkksssss``````.......```````",
"```````````````````````kkkvvvvvvvvvkkkk`````````````````````````",
"```````````````````````kkkvvvvvvvvvkkkk`````````````````````````"
};
