/* XPM */
static char *right1_xpm[] = {
/* width height num_colors chars_per_pixel */
"    64    64       32            1",
/* colors */
"` c #4e6338",
". c #000000",
"# c #7c5500",
"a c #c6a900",
"b c #422200",
"c c #1e1e1e",
"d c #363636",
"e c #4d4c4b",
"f c #7d7b76",
"g c #a29e96",
"h c #bebbb5",
"i c #e8e8e8",
"j c #040404",
"k c #f6a954",
"l c #84482a",
"m c #d97f40",
"n c #3f3013",
"o c #5d4717",
"p c #000000",
"q c #000000",
"r c #000000",
"s c #000000",
"t c #000000",
"u c #000000",
"v c #000000",
"w c #000000",
"x c #0000d0",
"y c #c19e30",
"z c #f97f00",
"A c #00adf2",
"B c #fd32f9",
"C c #7f0000",
/* pixels */
"```````````````````````.............````````````````````````````",
"```````````````````````.............````````````````````````````",
"```````````````````````.............````````````````````````````",
"````````````````````...###aaaaaaaaaa...`````````````````````````",
"````````````````````...###aaaaaaaaaa...`````````````````````````",
"````````````````````...###aaaaaaaaaa...`````````````````````````",
"`````````````````...###aaaaaaaaaaaaa###...``````````````````````",
"`````````````````...###aaaaaaaaaaaaa###...``````````````````````",
"`````````````````...###aaaaaaaaaaaaa###...``````````````````````",
"`````````````````...###aaaaaaaaaaaaa###...``````````````````````",
"`````````````....bbbbbbbbb#############...``````````````````````",
"`````````````....bbbbbbbbb#############...``````````````````````",
"`````````````....bbbbbbbbb#############...``````````````````````",
"`````````````....bbbbbbbbbbbb#######bbb...``````````````````````",
"`````````````....bbbbbbbbbbbb#######bbb...``````````````````````",
"`````````````....bbbbbbbbbbbb#######bbb...``````````````````````",
"`````````````..........ccccccbbbccccccc......```````````````````",
"`````````````..........ccccccbbbccccccc......```````````````````",
"`````````````..........ccccccbbbccccccc......```````````````````",
"`````````````````...cccddddddeeefffffffeeeddd...````````````````",
"`````````````````...cccddddddeeefffffffeeeddd...````````````````",
"`````````````````...cccddddddeeefffffffeeeddd...````````````````",
"`````````````....ccccccdddeeeeeeeeeeggggggeeeddd....````````````",
"`````````````....ccccccdddeeeeeeeeeeggggggeeeddd....````````````",
"`````````````....ccccccdddeeeeeeeeeeggggggeeeddd....````````````",
"`````````````....ccccccdddeeeeeeeeeeggggggeeeddd....````````````",
"`````````````....eeeffffffffffffeeeeeeeffffffggg....````````````",
"`````````````....eeeffffffffffffeeeeeeeffffffggg....````````````",
"`````````````....eeeffffffffffffeeeeeeeffffffggg....````````````",
"`````````````....dddeeefffffffffggggggghhhhhhfff....````````````",
"`````````````....dddeeefffffffffggggggghhhhhhfff....````````````",
"`````````````....dddeeefffffffffggggggghhhhhhfff....````````````",
"`````````````....ccccccccccccggggggghhhhhhhhhddd....````````````",
"`````````````....ccccccccccccggggggghhhhhhhhhddd....````````````",
"`````````````....ccccccccccccggggggghhhhhhhhhddd....````````````",
"`````````````````...ccccccccccccddddeeeeeeeee...````````````````",
"`````````````````...ccccccccccccddddeeeeeeeee...````````````````",
"`````````````````...ccccccccccccddddeeeeeeeee...````````````````",
"`````````````````...ccccccddddddeeeeiiijjjfff...````````````````",
"`````````````````...ccccccddddddeeeeiiijjjfff...````````````````",
"`````````````````...ccccccddddddeeeeiiijjjfff...````````````````",
"`````````````````...ccccccddddddeeeeiiijjjfff...````````````````",
"````````````````````jjjdddddddddddddeeekkkeee...````````````````",
"````````````````````jjjdddddddddddddeeekkkeee...````````````````",
"````````````````````jjjdddddddddddddeeekkkeee...````````````````",
"```````````````````````jjjeeefffffffdddllljjj...````````````````",
"```````````````````````jjjeeefffffffdddllljjj...````````````````",
"```````````````````````jjjeeefffffffdddllljjj...````````````````",
"```````````````````````jjjeeefffffffeeeeeejjj```````````````````",
"```````````````````````jjjeeefffffffeeeeeejjj```````````````````",
"```````````````````````jjjeeefffffffeeeeeejjj```````````````````",
"```````````````````````jjjjjjkkkkkkkjjjeeejjj```````````````````",
"```````````````````````jjjjjjkkkkkkkjjjeeejjj```````````````````",
"```````````````````````jjjjjjkkkkkkkjjjeeejjj```````````````````",
"```````````````````````jjjjjjkkkmmmmjjjdddjjj```````````````````",
"```````````````````````jjjjjjkkkmmmmjjjdddjjj```````````````````",
"```````````````````````jjjjjjkkkmmmmjjjdddjjj```````````````````",
"```````````````````````jjjjjjkkkmmmmjjjdddjjj```````````````````",
"``````````````````````````jjjjjjjjjjnnnjjj``````````````````````",
"``````````````````````````jjjjjjjjjjnnnjjj``````````````````````",
"``````````````````````````jjjjjjjjjjnnnjjj``````````````````````",
"``````````````````````````jjjoooooooooojjj``````````````````````",
"``````````````````````````jjjoooooooooojjj``````````````````````",
"``````````````````````````jjjoooooooooojjj``````````````````````"
};
