/* XPM */
static char *up1_xpm[] = {
/* width height num_colors chars_per_pixel */
"    64    64       16            1",
/* colors */
"` c #4e6338",
". c #000000",
"# c #c6a900",
"a c #7c5500",
"b c #422200",
"c c #1e1e1e",
"d c #363636",
"e c #4d4c4b",
"f c #a29e96",
"g c #7d7b76",
"h c #040404",
"i c #f6a954",
"j c #d97f40",
"k c #3f3013",
"l c #5d4717",
"m c #000000",
/* pixels */
"`````````````````````````````.......````````````````````````````",
"`````````````````````````````.......````````````````````````````",
"`````````````````````````````.......````````````````````````````",
"``````````````````````````...#######...`````````````````````````",
"``````````````````````````...#######...`````````````````````````",
"``````````````````````````...#######...`````````````````````````",
"```````````````````````...aaa#######aaa...``````````````````````",
"```````````````````````...aaa#######aaa...``````````````````````",
"```````````````````````...aaa#######aaa...``````````````````````",
"```````````````````````...aaaaaaaaaaaaa...``````````````````````",
"```````````````````````...aaaaaaaaaaaaa...``````````````````````",
"```````````````````````...aaaaaaaaaaaaa...``````````````````````",
"```````````````````````...bbbaaaaaaabbb...``````````````````````",
"```````````````````````...bbbaaaaaaabbb...``````````````````````",
"```````````````````````...bbbaaaaaaabbb...``````````````````````",
"```````````````````````...bbbaaaaaaabbb...``````````````````````",
"````````````````````...cccbbbbbbbbbbbbbccc....``````````````````",
"````````````````````...cccbbbbbbbbbbbbbccc....``````````````````",
"````````````````````...cccbbbbbbbbbbbbbccc....``````````````````",
"````````````````....cccdddeeebbbbbbbeeedddcccc...```````````````",
"````````````````....cccdddeeebbbbbbbeeedddcccc...```````````````",
"````````````````....cccdddeeebbbbbbbeeedddcccc...```````````````",
"`````````````...ccccdddeeeeeefffffffeeeeeeddddccc...````````````",
"`````````````...ccccdddeeeeeefffffffeeeeeeddddccc...````````````",
"`````````````...ccccdddeeeeeefffffffeeeeeeddddccc...````````````",
"`````````````...gggggggdddeeegggggggeeedddggggggg...````````````",
"`````````````...gggggggdddeeegggggggeeedddggggggg...````````````",
"`````````````...gggggggdddeeegggggggeeedddggggggg...````````````",
"`````````````...gggggggdddeeegggggggeeedddggggggg...````````````",
"`````````````...eeeeggggggfffffffffffffgggggggeee...````````````",
"`````````````...eeeeggggggfffffffffffffgggggggeee...````````````",
"`````````````...eeeeggggggfffffffffffffgggggggeee...````````````",
"`````````````...cccceeeggggggfffffffggggggeeeeccc...````````````",
"`````````````...cccceeeggggggfffffffggggggeeeeccc...````````````",
"`````````````...cccceeeggggggfffffffggggggeeeeccc...````````````",
"````````````````....cccddddddeeeeeeeddddddcccc...```````````````",
"````````````````....cccddddddeeeeeeeddddddcccc...```````````````",
"````````````````....cccddddddeeeeeeeddddddcccc...```````````````",
"````````````````....eeeeeeeeeeeeeeeeeeeeeeeeee...```````````````",
"````````````````....eeeeeeeeeeeeeeeeeeeeeeeeee...```````````````",
"````````````````....eeeeeeeeeeeeeeeeeeeeeeeeee...```````````````",
"````````````````hhhhgggdddeeeeeeeeeeeeedddgggghhh```````````````",
"````````````````hhhhgggdddeeeeeeeeeeeeedddgggghhh```````````````",
"````````````````hhhhgggdddeeeeeeeeeeeeedddgggghhh```````````````",
"````````````````hhhhgggdddeeeeeeeeeeeeedddgggghhh```````````````",
"`````````````hhhggggggggggggggggggggggggggggggggghhh````````````",
"`````````````hhhggggggggggggggggggggggggggggggggghhh````````````",
"`````````````hhhggggggggggggggggggggggggggggggggghhh````````````",
"``````````hhhiiiiiiihhheeegggggggggggggeeehhhhiiiiiihhh`````````",
"``````````hhhiiiiiiihhheeegggggggggggggeeehhhhiiiiiihhh`````````",
"``````````hhhiiiiiiihhheeegggggggggggggeeehhhhiiiiiihhh`````````",
"``````````hhhiiijjjjhhheeeeeeeeeeeeeeeeeeehhhhjjjiiihhh`````````",
"``````````hhhiiijjjjhhheeeeeeeeeeeeeeeeeeehhhhjjjiiihhh`````````",
"``````````hhhiiijjjjhhheeeeeeeeeeeeeeeeeeehhhhjjjiiihhh`````````",
"`````````````hhhhhhhhhhdddeeeeeeeeeeeeedddhhhhhhhhhh````````````",
"`````````````hhhhhhhhhhdddeeeeeeeeeeeeedddhhhhhhhhhh````````````",
"`````````````hhhhhhhhhhdddeeeeeeeeeeeeedddhhhhhhhhhh````````````",
"`````````````hhhhhhhhhhdddeeeeeeeeeeeeedddhhhhhhhhhh````````````",
"````````````````````hhhkkkkkkhhhhhhhkkkkkkhhhh``````````````````",
"````````````````````hhhkkkkkkhhhhhhhkkkkkkhhhh``````````````````",
"````````````````````hhhkkkkkkhhhhhhhkkkkkkhhhh``````````````````",
"````````````````````hhhllllllhhhhhhhllllllhhhh``````````````````",
"````````````````````hhhllllllhhhhhhhllllllhhhh``````````````````",
"````````````````````hhhllllllhhhhhhhllllllhhhh``````````````````"
};
