/* XPM */
static char *up2_xpm[] = {
/* width height num_colors chars_per_pixel */
"    64    64       32            1",
/* colors */
"` c #4e6338",
". c #101060",
"# c #000000",
"a c #c6a900",
"b c #7c5500",
"c c #422200",
"d c #f8e028",
"e c #1e1e1e",
"f c #363636",
"g c #4d4c4b",
"h c #a29e96",
"i c #7d7b76",
"j c #040404",
"k c #f6a954",
"l c #d97f40",
"m c #68c078",
"n c #302820",
"o c #3f3013",
"p c #5d4717",
"q c #000000",
"r c #000000",
"s c #000000",
"t c #000000",
"u c #000000",
"v c #000000",
"w c #000000",
"x c #0000d0",
"y c #c19e30",
"z c #f97f00",
"A c #00adf2",
"B c #fd32f9",
"C c #7f0000",
/* pixels */
"````````````````````````....`#######`....```````````````````````",
"````````````````````````....`#######`....```````````````````````",
"```````````````````.....`````#######`````.....``````````````````",
"```````````````````.....``###aaaaaaa###``.....``````````````````",
"`````````````````..`````..###aaaaaaa###..`````..````````````````",
"`````````````````..`````..###aaaaaaa###..`````..````````````````",
"`````````````````..````###bbbaaaaaaabbb###````..````````````````",
"`````````````````````..###bbbaaaaaaabbb###..````````````````````",
"`````````````````````..###bbbaaaaaaabbb###..````````````````````",
"`````````````````..````###bbbbbbbbbbbbb###````..````````````````",
"`````````````````..````###bbbbbbbbbbbbb###````..````````````````",
"`````````````````..``..###bbbbbbbbbbbbb###..``..````````````````",
"`````````````````..``..###cccbbbbbbbccc###..``..````````````````",
"```````````````..dd..``###cccbbbbbbbccc###``..dd..``````````````",
"```````````````..dd..``###cccbbbbbbbccc###``..dd..``````````````",
"```````````````..dd..``###cccbbbbbbbccc###``..dd..``````````````",
"```````````````..dd.###eeeccccccccccccceee####dd..``````````````",
"```````````````..dd.###eeeccccccccccccceee####dd..``````````````",
"`````````````````..`###eeeccccccccccccceee####..````````````````",
"````````````````####eeefffgggcccccccgggfffeeee###```````````````",
"```````````````.####eeefffgggcccccccgggfffeeee###.``````````````",
"```````````````.####eeefffgggcccccccgggfffeeee###.``````````````",
"`````````````###eeeefffgggggghhhhhhhggggggffffeee###````````````",
"`````````````###eeeefffgggggghhhhhhhggggggffffeee###````````````",
"`````````````###eeeefffgggggghhhhhhhggggggffffeee###````````````",
"`````````````###iiiiiiifffgggiiiiiiigggfffiiiiiii###````````````",
"`````````````###iiiiiiifffgggiiiiiiigggfffiiiiiii###````````````",
"`````````````###iiiiiiifffgggiiiiiiigggfffiiiiiii###````````````",
"`````````````###iiiiiiifffgggiiiiiiigggfffiiiiiii###````````````",
"`````````````###ggggiiiiiihhhhhhhhhhhhhiiiiiiiggg###````````````",
"`````````````###ggggiiiiiihhhhhhhhhhhhhiiiiiiiggg###````````````",
"`````````````###ggggiiiiiihhhhhhhhhhhhhiiiiiiiggg###````````````",
"`````````````###eeeegggiiiiiihhhhhhhiiiiiiggggeee###````````````",
"`````````````###eeeegggiiiiiihhhhhhhiiiiiiggggeee###````````````",
"`````````````###eeeegggiiiiiihhhhhhhiiiiiiggggeee###````````````",
"```````````````.####eeeffffffgggggggffffffeeee###.``````````````",
"```````````````.####eeeffffffgggggggffffffeeee###.``````````````",
"```````````````.####eeeffffffgggggggffffffeeee###.``````````````",
"```````````````.####gggggggggggggggggggggggggg###.``````````````",
"```````````````.####gggggggggggggggggggggggggg###.``````````````",
"```````````````.####gggggggggggggggggggggggggg###.``````````````",
"```````````````.jjjjiiifffgggggggggggggfffiiiijjj.``````````````",
"```````````````.jjjjiiifffgggggggggggggfffiiiijjj.``````````````",
"```````````````.jjjjiiifffgggggggggggggfffiiiijjj.``````````````",
"```````````````.jjjjiiifffgggggggggggggfffiiiijjj.``````````````",
"`````````````jjjiiiiiiiiiiiiiiiiiiiiiiiiiiiiiiiiijjj````````````",
"`````````````jjjiiiiiiiiiiiiiiiiiiiiiiiiiiiiiiiiijjj````````````",
"`````````````jjjiiiiiiiiiiiiiiiiiiiiiiiiiiiiiiiiijjj````````````",
"``````````jjjkkkkkkkjjjgggiiiiiiiiiiiiigggjjjjkkkkkkjjj`````````",
"``````````jjjkkkkkkkjjjgggiiiiiiiiiiiiigggjjjjkkkkkkjjj`````````",
"``````````jjjkkkkkkkjjjgggiiiiiiiiiiiiigggjjjjkkkkkkjjj`````````",
"````````..jjjkkklllljjjgggggggggggggggggggjjjjlllkkkjjj..```````",
"````````..jjjkkklllljjjgggggggggggggggggggjjjjlllkkkjjj..```````",
"``````..ddjjjkkklllljjjgggggggggggggggggggjjjjlllkkkjjjdd..`````",
"``````..dd...jjjjjjjjjjfffgggggggggggggfffjjjjjjjjjj...dd..`````",
"``````..dddddjjjjjjjjjjfffgggggggggggggfffjjjjjjjjjjddddd..`````",
"``````..dddddjjjjjjjjjjfffgggggggggggggfffjjjjjjjjjjddddd..`````",
"``````..mmmmmjjjjjjjjjjfffgggggggggggggfffjjjjjjjjjjmmmmm..`````",
"``````..mmmmmmm..``njjjoooooojjjjjjjoooooojjjj``..mmmmmmm..`````",
"``````..mmmmmmm..``njjjoooooojjjjjjjoooooojjjj``..mmmmmmm..`````",
"````````.......`````jjjoooooojjjjjjjoooooojjjj````.......```````",
"````````.......`````jjjppppppjjjjjjjppppppjjjj````.......```````",
"````````````````````jjjppppppjjjjjjjppppppjjjj``````````````````",
"````````````````````jjjppppppjjjjjjjppppppjjjj``````````````````"
};
