/* XPM */
static char *wall2_xpm[] = {
/* width height num_colors chars_per_pixel */
"    64    64       16            1",
/* colors */
"` c #4e6338",
". c #171717",
"# c #93c147",
"a c #598c46",
"b c #77a947",
"c c #346b3d",
"d c #213f2f",
"e c #2e2415",
"f c #4f3712",
"g c #644f1b",
"h c #7b642e",
"i c #000000",
"j c #000000",
"k c #000000",
"l c #000000",
"m c #000000",
/* pixels */
"````````````````````````````........````````````````````````````",
"````````````````````````````........````````````````````````````",
"````````````````````````````........````````````````````````````",
"````````````````````````````........````````````````````````````",
"````````````````````````....########....````````````````````````",
"````````````````````````....########....````````````````````````",
"````````````````````````....########....````````````````````````",
"````````````````````````....########....````````````````````````",
"````````````````````....aaaa########aaaa....````````````````````",
"````````````````````....aaaa########aaaa....````````````````````",
"````````````````````....aaaa########aaaa....````````````````````",
"````````````````````....aaaa########aaaa....````````````````````",
"````````````````````....bbbbbbbbbbbbbbbb....````````````````````",
"````````````````````....bbbbbbbbbbbbbbbb....````````````````````",
"````````````````````....bbbbbbbbbbbbbbbb....````````````````````",
"````````````````````....bbbbbbbbbbbbbbbb....````````````````````",
"````````````````....ccccaaaabbbbbbbbaaaacccc....````````````````",
"````````````````....ccccaaaabbbbbbbbaaaacccc....````````````````",
"````````````````....ccccaaaabbbbbbbbaaaacccc....````````````````",
"````````````````....ccccaaaabbbbbbbbaaaacccc....````````````````",
"````````````....ddddaaaaaaaaaaaaaaaaaaaaaaaadddd....````````````",
"````````````....ddddaaaaaaaaaaaaaaaaaaaaaaaadddd....````````````",
"````````````....ddddaaaaaaaaaaaaaaaaaaaaaaaadddd....````````````",
"````````````....ddddaaaaaaaaaaaaaaaaaaaaaaaadddd....````````````",
"````````````....ccccccccaaaaaaaaaaaaaaaacccccccc....````````````",
"````````````....ccccccccaaaaaaaaaaaaaaaacccccccc....````````````",
"````````````....ccccccccaaaaaaaaaaaaaaaacccccccc....````````````",
"````````````....ccccccccaaaaaaaaaaaaaaaacccccccc....````````````",
"````````````....cccccccccccccccccccccccccccccccc....````````````",
"````````````....cccccccccccccccccccccccccccccccc....````````````",
"````````````....cccccccccccccccccccccccccccccccc....````````````",
"````````````....cccccccccccccccccccccccccccccccc....````````````",
"````````````....ddddccccccccccccccccccccccccdddd....````````````",
"````````````....ddddccccccccccccccccccccccccdddd....````````````",
"````````````....ddddccccccccccccccccccccccccdddd....````````````",
"````````````....ddddccccccccccccccccccccccccdddd....````````````",
"````````````....dddddddddddddddddddddddddddddddd....````````````",
"````````````....dddddddddddddddddddddddddddddddd....````````````",
"````````````....dddddddddddddddddddddddddddddddd....````````````",
"````````````....dddddddddddddddddddddddddddddddd....````````````",
"````````````````....dddddddddddddddddddddddd....````````````````",
"````````````````....dddddddddddddddddddddddd....````````````````",
"````````````````....dddddddddddddddddddddddd....````````````````",
"````````````````....dddddddddddddddddddddddd....````````````````",
"````````````````````....eeeeffffffffeeee....````````````````````",
"````````````````````....eeeeffffffffeeee....````````````````````",
"````````````````````....eeeeffffffffeeee....````````````````````",
"````````````````````....eeeeffffffffeeee....````````````````````",
"````````````````````eeeeffffggggggggffffeeee````````````````````",
"````````````````````eeeeffffggggggggffffeeee````````````````````",
"````````````````````eeeeffffggggggggffffeeee````````````````````",
"````````````````````eeeeffffggggggggffffeeee````````````````````",
"````````````````````````eeeehhhhhhhheeee````````````````````````",
"````````````````````````eeeehhhhhhhheeee````````````````````````",
"````````````````````````eeeehhhhhhhheeee````````````````````````",
"````````````````````````eeeehhhhhhhheeee````````````````````````",
"````````````````````````````````````````````````````````````````",
"````````````````````````````````````````````````````````````````",
"````````````````````````````````````````````````````````````````",
"````````````````````````````````````````````````````````````````",
"````````````````````````````````````````````````````````````````",
"````````````````````````````````````````````````````````````````",
"````````````````````````````````````````````````````````````````",
"````````````````````````````````````````````````````````````````"
};
