/* XPM */
static char * exit2_xpm[] = {
"64 64 16 1",
" 	c #4E6338",
".	c #101060",
"+	c #F8F8A0",
"@	c #F8A800",
"#	c #289070",
"$	c #68C078",
"%	c #90D898",
"&	c #F86000",
"*	c #F8E028",
"=	c #F8F8E0",
"-	c #E0C0F8",
";	c #C0A0F8",
">	c #A0F8A8",
",	c #A080F8",
"'	c #8060F8",
")	c #302820",
"                        ....   ...   ....                       ",
"                        ....   ...   ....                       ",
"                   .....     ..+++..     .....                  ",
"                   .....     ..+++..     .....                  ",
"                 ..     .. ..@@###@@.. ..     ..                ",
"                 ..     .. ..@@###@@.. ..     ..                ",
"                 ..     .. ....$$$.... ..     ..                ",
"                     ...   ....$$$....   ...                    ",
"                     ... ......%%%...... ...                    ",
"                 ..     .......%%%.......     ..                ",
"                 ..  .....   ..$$$..   .....  ..                ",
"                 ..  .... .. ..$$$.. .. ....  ..                ",
"                 ....... ....&&###&&.... .......                ",
"               ..**..    ....&&###&&....    ..**..              ",
"               ..**..  ..**..@@+++@@..**..  ..**..              ",
"               ..**..  ..**..@@+++@@..**..  ..**..              ",
"               ..**....&&++&&**&&&**&&++&&....**..              ",
"               ..**..&&@@**&&..#==..&&**@@&&..**..              ",
"                 ....&&@@**&&..#==..&&**@@&&....                ",
"                 ....++@@....###====....@@++....                ",
"               ......++@@....###====....@@++......              ",
"               ......++... ..###====.. ...++......              ",
"               ......++... ..###====.. ...++......              ",
"               ..&&....#.. ..###====.. ..#....&&..              ",
"                 .......   ..###====..   .......                ",
"                 ............$$#==--............                ",
"               ......  ......$$#==--......  ......              ",
"               ....&&..##....%%$--;;....##..&&....              ",
"               ....&&..##....%%$--;;....##..&&....              ",
"               ..**......  ..>>%;;,,..  ......**..              ",
"               ..**......  ..>>%;;,,..  ......**..              ",
"               ....**.. .. ..==>,,''.. .. ..**....              ",
"               ....**.. .. ..==>,,''.. .. ..**....              ",
"                 ..**....  ..>>='',,..  ....**..                ",
"                 ..**....  ..>>='',,..  ....**..                ",
"               ........ .....%%>,,;;..... ........              ",
"               ........ .....%%>,,;;..... ........              ",
"               ..    ..... ..$$%;;--.. .....    ..              ",
"               ..........  ..$$%;;--..  ..........              ",
"               ......... ....##%;;==.... .........              ",
"               ..............##%;;==..............              ",
"               ........... ..##$----.. ...........              ",
"               ..........=...##$----...=..........              ",
"               ..............###==,,..............              ",
"               ..............###==,,..............              ",
"               ....**==..==..###==''..==..==**....              ",
"               ....**==..==..###==''..==..==**....              ",
"               ....$$..&&&&>>..#--..>>&&&&..$$....              ",
"               ....$$......>>..#,,..>>......$$....              ",
"               ....$$......>>..#,,..>>......$$....              ",
"               ....%%..   ...  ...  ...   ..%%....              ",
"        ..     &&..%%..   )..))...))..)   ..%%..&&     ..       ",
"        .. ..  &&&&..     )))))...)))))     ..&&&&  .. ..       ",
"      ..**.....**&&..))))))))))...))))))))))..&&**.....**..     ",
"      ..*..**....**##..)))))))))))))))))))..##**....**..*..     ",
"      ..*..**....**##..)))))))))))))))))))..##**....**..*..     ",
"      ..*..****####..)))))))))))))))))))))))..####****..*..     ",
"      ..$..****####..)))))))))))))))))))))))..####****..$..     ",
"      ..$..$$$$$$..)))))))))))))))))))))))))))..$$$$$$..$..     ",
"      ..$..$$$$$$..)))))))))))))))))))))))))))..$$$$$$..$..     ",
"        .........    )))))))))))))))))))))))    .........       ",
"        .........    )))))))))))))))))))))))    .........       ",
"                          )))))))))))))                         ",
"                          )))))))))))))                         "};
