/* XPM */
static char * right2_xpm[] = {
"64 64 26 1",
" 	c #4E6338",
".	c #000000",
"+	c #101060",
"@	c #7C5500",
"#	c #C6A900",
"$	c #422200",
"%	c #F8E028",
"&	c #1E1E1E",
"*	c #363636",
"=	c #4D4C4B",
"-	c #7D7B76",
";	c #A29E96",
">	c #BEBBB5",
",	c #E8E8E8",
"'	c #040404",
")	c #F8F8E0",
"!	c #F6A954",
"~	c #68C078",
"{	c #F86000",
"]	c #84482A",
"^	c #90D898",
"/	c #289070",
"(	c #302820",
"_	c #D97F40",
":	c #3F3013",
"<	c #5D4717",
"                       ............. ++++                       ",
"                       ............. ++++                       ",
"                   ++++.............     +++++                  ",
"                   +...@@@##########...  +++++                  ",
"                 ++ ...@@@##########...++     ++                ",
"                 ++ ...@@@##########...++     ++                ",
"                 ...@@@#############@@@...    ++                ",
"                 ...@@@#############@@@...++                    ",
"                 ...@@@#############@@@...++                    ",
"                 ...@@@#############@@@...    ++                ",
"             ....$$$$$$$$$@@@@@@@@@@@@@...    ++                ",
"             ....$$$$$$$$$@@@@@@@@@@@@@...++  ++                ",
"             ....$$$$$$$$$@@@@@@@@@@@@@...++  ++                ",
"             ....$$$$$$$$$$$$@@@@@@@$$$...  ++%%++              ",
"             ....$$$$$$$$$$$$@@@@@@@$$$...  ++%%++              ",
"             ....$$$$$$$$$$$$@@@@@@@$$$...  ++%%++              ",
"             ..........&&&&&&$$$&&&&&&&......+%%++              ",
"             ..........&&&&&&$$$&&&&&&&......+%%++              ",
"             ..........&&&&&&$$$&&&&&&&...... ++                ",
"                 ...&&&******===-------===***...                ",
"               ++...&&&******===-------===***...++              ",
"               ++...&&&******===-------===***...++              ",
"             ....&&&&&&***==========;;;;;;===***....            ",
"             ....&&&&&&***==========;;;;;;===***....            ",
"             ....&&&&&&***==========;;;;;;===***....            ",
"             ....&&&&&&***==========;;;;;;===***....            ",
"             ....===------------=======------;;;....            ",
"             ....===------------=======------;;;....            ",
"             ....===------------=======------;;;....            ",
"             ....***===---------;;;;;;;>>>>>>---....            ",
"             ....***===---------;;;;;;;>>>>>>---....            ",
"             ....***===---------;;;;;;;>>>>>>---....            ",
"             ....&&&&&&&&&&&&;;;;;;;>>>>>>>>>***....            ",
"             ....&&&&&&&&&&&&;;;;;;;>>>>>>>>>***....            ",
"             ....&&&&&&&&&&&&;;;;;;;>>>>>>>>>***....            ",
"               ++...&&&&&&&&&&&&****=========...++              ",
"               ++...&&&&&&&&&&&&****=========...++              ",
"               ++...&&&&&&&&&&&&****=========...++              ",
"               ++...&&&&&&******====,,,'''---...++              ",
"               ++...&&&&&&******====,,,'''---...++              ",
"               ++...&&&&&&******====,,,'''---...++              ",
"               ++...&&&&&&******====,,,'''---...++              ",
"               ++%%)'''*************===!!!===...++              ",
"               ++%%)'''*************===!!!===...++              ",
"               ++~~+'''*************===!!!===...++              ",
"               ++~~++{{'''===-------***]]]'''...++              ",
"               ++~~++++'''===-------***]]]'''...++              ",
"               ++~~++++'''===-------***]]]'''...++              ",
"               ++~~++++'''===-------======'''+~~++              ",
"               ++^^++  '''===-------======'''+^^++              ",
"               ++^^++  '''===-------======'''+^^++              ",
"        ++     {{++    ''''''!!!!!!!'''===''' ++{{     ++       ",
"        ++     {{++    ''''''!!!!!!!'''===''' ++{{     ++       ",
"      ++%%+++++%%//++((''''''!!!!!!!'''==='''+//%%+++++%%++     ",
"      ++%%+++++%%//++((''''''!!!____'''***'''+//%%+++++%%++     ",
"      ++%%%%%////++((((''''''!!!____'''***'''(++////%%%%%++     ",
"      ++%%%%%////++((((''''''!!!____'''***'''(++////%%%%%++     ",
"      ++~~~~~~~++  ((((''''''!!!____'''***'''(  ++~~~~~~~++     ",
"      ++~~~~~~~++  ((((((('''''''''':::'''((((  ++~~~~~~~++     ",
"      ++~~~~~~~++  ((((((('''''''''':::'''((((  ++~~~~~~~++     ",
"        +++++++      ((((('''''''''':::'''((      +++++++       ",
"        +++++++      ((((('''<<<<<<<<<<'''((      +++++++       ",
"                          '''<<<<<<<<<<'''                      ",
"                          '''<<<<<<<<<<'''                      "};
