/* XPM */
static char * up1_xpm[] = {
"64 64 15 1",
" 	c #4E6338",
".	c #000000",
"+	c #C6A900",
"@	c #7C5500",
"#	c #422200",
"$	c #1E1E1E",
"%	c #363636",
"&	c #4D4C4B",
"*	c #A29E96",
"=	c #7D7B76",
"-	c #040404",
";	c #F6A954",
">	c #D97F40",
",	c #3F3013",
"'	c #5D4717",
"                             .......                            ",
"                             .......                            ",
"                             .......                            ",
"                          ...+++++++...                         ",
"                          ...+++++++...                         ",
"                          ...+++++++...                         ",
"                       ...@@@+++++++@@@...                      ",
"                       ...@@@+++++++@@@...                      ",
"                       ...@@@+++++++@@@...                      ",
"                       ...@@@@@@@@@@@@@...                      ",
"                       ...@@@@@@@@@@@@@...                      ",
"                       ...@@@@@@@@@@@@@...                      ",
"                       ...###@@@@@@@###...                      ",
"                       ...###@@@@@@@###...                      ",
"                       ...###@@@@@@@###...                      ",
"                       ...###@@@@@@@###...                      ",
"                    ...$$$#############$$$....                  ",
"                    ...$$$#############$$$....                  ",
"                    ...$$$#############$$$....                  ",
"                ....$$$%%%&&&#######&&&%%%$$$$...               ",
"                ....$$$%%%&&&#######&&&%%%$$$$...               ",
"                ....$$$%%%&&&#######&&&%%%$$$$...               ",
"             ...$$$$%%%&&&&&&*******&&&&&&%%%%$$$...            ",
"             ...$$$$%%%&&&&&&*******&&&&&&%%%%$$$...            ",
"             ...$$$$%%%&&&&&&*******&&&&&&%%%%$$$...            ",
"             ...=======%%%&&&=======&&&%%%=======...            ",
"             ...=======%%%&&&=======&&&%%%=======...            ",
"             ...=======%%%&&&=======&&&%%%=======...            ",
"             ...=======%%%&&&=======&&&%%%=======...            ",
"             ...&&&&======*************=======&&&...            ",
"             ...&&&&======*************=======&&&...            ",
"             ...&&&&======*************=======&&&...            ",
"             ...$$$$&&&======*******======&&&&$$$...            ",
"             ...$$$$&&&======*******======&&&&$$$...            ",
"             ...$$$$&&&======*******======&&&&$$$...            ",
"                ....$$$%%%%%%&&&&&&&%%%%%%$$$$...               ",
"                ....$$$%%%%%%&&&&&&&%%%%%%$$$$...               ",
"                ....$$$%%%%%%&&&&&&&%%%%%%$$$$...               ",
"                ....&&&&&&&&&&&&&&&&&&&&&&&&&&...               ",
"                ....&&&&&&&&&&&&&&&&&&&&&&&&&&...               ",
"                ....&&&&&&&&&&&&&&&&&&&&&&&&&&...               ",
"                ----===%%%&&&&&&&&&&&&&%%%====---               ",
"                ----===%%%&&&&&&&&&&&&&%%%====---               ",
"                ----===%%%&&&&&&&&&&&&&%%%====---               ",
"                ----===%%%&&&&&&&&&&&&&%%%====---               ",
"             ---=================================---            ",
"             ---=================================---            ",
"             ---=================================---            ",
"          ---;;;;;;;---&&&=============&&&----;;;;;;---         ",
"          ---;;;;;;;---&&&=============&&&----;;;;;;---         ",
"          ---;;;;;;;---&&&=============&&&----;;;;;;---         ",
"          ---;;;>>>>---&&&&&&&&&&&&&&&&&&&---->>>;;;---         ",
"          ---;;;>>>>---&&&&&&&&&&&&&&&&&&&---->>>;;;---         ",
"          ---;;;>>>>---&&&&&&&&&&&&&&&&&&&---->>>;;;---         ",
"             ----------%%%&&&&&&&&&&&&&%%%----------            ",
"             ----------%%%&&&&&&&&&&&&&%%%----------            ",
"             ----------%%%&&&&&&&&&&&&&%%%----------            ",
"             ----------%%%&&&&&&&&&&&&&%%%----------            ",
"                    ---,,,,,,-------,,,,,,----                  ",
"                    ---,,,,,,-------,,,,,,----                  ",
"                    ---,,,,,,-------,,,,,,----                  ",
"                    ---''''''-------''''''----                  ",
"                    ---''''''-------''''''----                  ",
"                    ---''''''-------''''''----                  "};
