/* XPM */
static char * wall2_xpm[] = {
"64 64 11 1",
" 	c #4E6338",
".	c #171717",
"+	c #93C147",
"@	c #598C46",
"#	c #77A947",
"$	c #346B3D",
"%	c #213F2F",
"&	c #2E2415",
"*	c #4F3712",
"=	c #644F1B",
"-	c #7B642E",
"                            ........                            ",
"                            ........                            ",
"                            ........                            ",
"                            ........                            ",
"                        ....++++++++....                        ",
"                        ....++++++++....                        ",
"                        ....++++++++....                        ",
"                        ....++++++++....                        ",
"                    ....@@@@++++++++@@@@....                    ",
"                    ....@@@@++++++++@@@@....                    ",
"                    ....@@@@++++++++@@@@....                    ",
"                    ....@@@@++++++++@@@@....                    ",
"                    ....################....                    ",
"                    ....################....                    ",
"                    ....################....                    ",
"                    ....################....                    ",
"                ....$$$$@@@@########@@@@$$$$....                ",
"                ....$$$$@@@@########@@@@$$$$....                ",
"                ....$$$$@@@@########@@@@$$$$....                ",
"                ....$$$$@@@@########@@@@$$$$....                ",
"            ....%%%%@@@@@@@@@@@@@@@@@@@@@@@@%%%%....            ",
"            ....%%%%@@@@@@@@@@@@@@@@@@@@@@@@%%%%....            ",
"            ....%%%%@@@@@@@@@@@@@@@@@@@@@@@@%%%%....            ",
"            ....%%%%@@@@@@@@@@@@@@@@@@@@@@@@%%%%....            ",
"            ....$$$$$$$$@@@@@@@@@@@@@@@@$$$$$$$$....            ",
"            ....$$$$$$$$@@@@@@@@@@@@@@@@$$$$$$$$....            ",
"            ....$$$$$$$$@@@@@@@@@@@@@@@@$$$$$$$$....            ",
"            ....$$$$$$$$@@@@@@@@@@@@@@@@$$$$$$$$....            ",
"            ....$$$$$$$$$$$$$$$$$$$$$$$$$$$$$$$$....            ",
"            ....$$$$$$$$$$$$$$$$$$$$$$$$$$$$$$$$....            ",
"            ....$$$$$$$$$$$$$$$$$$$$$$$$$$$$$$$$....            ",
"            ....$$$$$$$$$$$$$$$$$$$$$$$$$$$$$$$$....            ",
"            ....%%%%$$$$$$$$$$$$$$$$$$$$$$$$%%%%....            ",
"            ....%%%%$$$$$$$$$$$$$$$$$$$$$$$$%%%%....            ",
"            ....%%%%$$$$$$$$$$$$$$$$$$$$$$$$%%%%....            ",
"            ....%%%%$$$$$$$$$$$$$$$$$$$$$$$$%%%%....            ",
"            ....%%%%%%%%%%%%%%%%%%%%%%%%%%%%%%%%....            ",
"            ....%%%%%%%%%%%%%%%%%%%%%%%%%%%%%%%%....            ",
"            ....%%%%%%%%%%%%%%%%%%%%%%%%%%%%%%%%....            ",
"            ....%%%%%%%%%%%%%%%%%%%%%%%%%%%%%%%%....            ",
"                ....%%%%%%%%%%%%%%%%%%%%%%%%....                ",
"                ....%%%%%%%%%%%%%%%%%%%%%%%%....                ",
"                ....%%%%%%%%%%%%%%%%%%%%%%%%....                ",
"                ....%%%%%%%%%%%%%%%%%%%%%%%%....                ",
"                    ....&&&&********&&&&....                    ",
"                    ....&&&&********&&&&....                    ",
"                    ....&&&&********&&&&....                    ",
"                    ....&&&&********&&&&....                    ",
"                    &&&&****========****&&&&                    ",
"                    &&&&****========****&&&&                    ",
"                    &&&&****========****&&&&                    ",
"                    &&&&****========****&&&&                    ",
"                        &&&&--------&&&&                        ",
"                        &&&&--------&&&&                        ",
"                        &&&&--------&&&&                        ",
"                        &&&&--------&&&&                        ",
"                                                                ",
"                                                                ",
"                                                                ",
"                                                                ",
"                                                                ",
"                                                                ",
"                                                                ",
"                                                                "};
