/* XPM */
static char *exit2_xpm[] = {
/* width height num_colors chars_per_pixel */
"    32    32       16            1",
/* colors */
"` c #4e6338",
". c #151560",
"# c #f8f8a0",
"a c #f8a800",
"b c #279070",
"c c #67c078",
"d c #90d898",
"e c #f86000",
"f c #f8e027",
"g c #f8f8e0",
"h c #e0c0f8",
"i c #c0a0f8",
"j c #a0f8a8",
"k c #a080f8",
"l c #8060f8",
"m c #2e2722",
/* pixels */
"````````````..``.``..```````````",
"``````````..```.#.```..`````````",
"`````````.``.`.aba.`.``.````````",
"`````````.``.`..c..`.``.````````",
"```````````.`...d...`.``````````",
"`````````.`..``.c.``..`.````````",
"`````````...`..ebe..`...````````",
"````````.f.`.f.a#a.f.`.f.```````",
"````````.f..e#efefe#e..f.```````",
"`````````..eafe.g.efae..````````",
"````````...#a..bgg..a#...```````",
"````````...#.`.bgg.`.#...```````",
"`````````...``.bgg.``...````````",
"````````...`...cgh...`...```````",
"````````..e.b..dhi..b.e..```````",
"````````.f...`.jik.`...f.```````",
"````````..f..`.gkl.`..f..```````",
"`````````.f..`.jlk.`..f.````````",
"````````.......dki.......```````",
"````````.....`.cih.`.....```````",
"````````.......big.......```````",
"````````.......bhh.......```````",
"````````.......bgk.......```````",
"````````..fg.g.bgl.g.gf..```````",
"````````..c...j.k.j...c..```````",
"````````..d.`..`.`..`.d..```````",
"````.`.`ee.``mmm.mmm``.ee`.`.```",
"```.f.f..fb.mmmmmmmmm.bf..f.f.``",
"```.f.ffbb.mmmmmmmmmmm.bbff.f.``",
"```.c.ccc.mmmmmmmmmmmmm.ccc.c.``",
"````.....``mmmmmmmmmmm``.....```",
"`````````````mmmmmmm````````````"
};
