/* XPM */
static char *left2_xpm[] = {
/* width height num_colors chars_per_pixel */
"    32    32       32            1",
/* colors */
"` c #4e6338",
". c #151560",
"# c #000000",
"a c #c6a900",
"b c #7c5500",
"c c #422200",
"d c #f8e027",
"e c #1c1c1c",
"f c #353535",
"g c #4c4c4a",
"h c #7d7b76",
"i c #a29e96",
"j c #bebbb5",
"k c #000000",
"l c #e8e8e8",
"m c #f6a954",
"n c #f8f8e0",
"o c #67c078",
"p c #f86000",
"q c #90d898",
"r c #279070",
"s c #2e2722",
"t c #d97f40",
"u c #402e15",
"v c #5d4615",
"w c #000000",
"x c #0000d0",
"y c #c19e2e",
"z c #f97f00",
"A c #00adf2",
"B c #fd32f9",
"C c #7f0000",
/* pixels */
"````````````..`######```````````",
"``````````..```######..`````````",
"`````````.``.##aaaaab##.````````",
"`````````.``.##aaaaab##.````````",
"```````````.#bbaaaaaabb#````````",
"`````````.``#bbbbbbbcccc##``````",
"`````````.`.#bbbbbbbcccc##``````",
"````````.d.`#ccbbbcccccc##``````",
"````````.d###eeecceee#####``````",
"`````````.###eeecceee#####``````",
"````````##ffghhhggfffee#.```````",
"````````##ffghhhggfffee#.```````",
"```````#ffggiiigggggfeee##``````",
"```````#iijjhgggffhhhggg##``````",
"```````#iijjhgggffhhhggg##``````",
"```````#jjjjjiiiiihhgggf##``````",
"```````#ffjjjjjiiiiieeee##``````",
"```````#ffjjjjjiiiiieeee##``````",
"````````##gggggfeeeeeeee##``````",
"````````##gggggfeeeeeeee##``````",
"````````##hhkllgffffeee#.```````",
"````````##ggmggffffffkkd.```````",
"````````##ggmggffffffkko.```````",
"````````##kkfffhhhggk..o.```````",
"````````.okkggghhhggk..o.```````",
"````````.qkkggghhhggk`.q.```````",
"````.```p.kkgkkmmmkkk``.p```.```",
"```.d...drkkgkkmmmkkks.rd...d.``",
"```.dddrr.kkfkktmmkkkss.rrddd.``",
"```.oooo.`sskuukkkkksss`.oooo.``",
"````....```skuukkkkkss```....```",
"````````````kvvvvvkk````````````"
};
