/* XPM */
static char *right1_xpm[] = {
/* width height num_colors chars_per_pixel */
"    32    32       32            1",
/* colors */
"` c #4e6338",
". c #000000",
"# c #7c5500",
"a c #c6a900",
"b c #422200",
"c c #1c1c1c",
"d c #353535",
"e c #4c4c4a",
"f c #7d7b76",
"g c #a29e96",
"h c #bebbb5",
"i c #e8e8e8",
"j c #000000",
"k c #f6a954",
"l c #84482b",
"m c #d97f40",
"n c #402e15",
"o c #5d4615",
"p c #000000",
"q c #000000",
"r c #000000",
"s c #000000",
"t c #000000",
"u c #000000",
"v c #000000",
"w c #000000",
"x c #0000d0",
"y c #c19e2e",
"z c #f97f00",
"A c #00adf2",
"B c #fd32f9",
"C c #7f0000",
/* pixels */
"````````````......``````````````",
"````````````......``````````````",
"``````````..#aaaaa..````````````",
"`````````.##aaaaaa##.```````````",
"`````````.##aaaaaa##.```````````",
"```````..bbbb#######.```````````",
"```````..bbbb#######.```````````",
"```````..bbbbbb###bb.```````````",
"```````.....cccbcccc...`````````",
"```````.....cccbcccc...`````````",
"`````````.ccdddeffffedd.````````",
"```````..cccdeeeeegggeed..``````",
"```````..cccdeeeeegggeed..``````",
"```````..effffffeeeefffg..``````",
"```````..effffffeeeefffg..``````",
"```````..deeffffgggghhhf..``````",
"```````..ccccccggghhhhhd..``````",
"```````..ccccccggghhhhhd..``````",
"`````````.ccccccddeeeee.````````",
"`````````.cccdddeeiijff.````````",
"`````````.cccdddeeiijff.````````",
"``````````jjddddddeekee.````````",
"``````````jjddddddeekee.````````",
"````````````jeefffddljj.````````",
"````````````jeefffeeejj`````````",
"````````````jeefffeeejj`````````",
"````````````jjjkkkjjejj`````````",
"````````````jjjkmmjjdjj`````````",
"````````````jjjkmmjjdjj`````````",
"`````````````jjjjjnnj```````````",
"`````````````jjjjjnnj```````````",
"`````````````jjoooooj```````````"
};
