/* XPM */
static char *wall1_xpm[] = {
/* width height num_colors chars_per_pixel */
"    32    32       64            2",
/* colors */
"`` c #3b4c2b",
"`. c #151515",
"`# c #93c146",
"`a c #384a27",
"`b c #384827",
"`c c #354627",
"`d c #354427",
"`e c #354627",
"`f c #384a2b",
"`g c #3b4c2b",
"`h c #324222",
"`i c #324222",
"`j c #324222",
"`k c #324222",
"`l c #324422",
"`m c #354422",
"`n c #384827",
"`o c #384a27",
"`p c #598c46",
"`q c #354627",
"`r c #354427",
"`s c #354627",
"`t c #77a946",
"`u c #356b3d",
"`v c #22402e",
"`w c #354427",
"`x c #2e2215",
"`y c #4e3815",
"`z c #654e1c",
"`A c #384a2b",
"`B c #7b652e",
"`C c #384827",
"`D c #3b4a2b",
"`E c #000000",
"`F c #000000",
"`G c #000000",
"`H c #000000",
"`I c #0040ec",
"`J c #7fa6f7",
"`K c #000000",
"`L c #000000",
"`M c #000000",
"`N c #000000",
"`O c #000000",
"`P c #000000",
"`Q c #000000",
"`R c #000000",
"`S c #000000",
"`T c #000000",
"`U c #000000",
"`V c #000000",
"`W c #000000",
"`X c #000000",
"`Y c #000000",
"`Z c #000000",
"`0 c #000000",
"`1 c #000000",
"`2 c #000000",
"`3 c #000000",
"`4 c #000000",
"`5 c #000000",
"`6 c #000000",
"`7 c #000000",
"`8 c #000000",
/* pixels */
"`````````````````````````````.`.`.`.````````````````````````````",
"`````````````````````````````.`.`.`.````````````````````````````",
"`````````````````````````.`.`#`#`#`#`.`.````````````````````````",
"```````````a`c`e`f`a`g```.`.`#`#`#`#`.`.````````````````````````",
"```````````j`j`j`j`j`.`.`p`p`#`#`#`#`p`p`.`.```````g`m``````````",
"```````````````a`a```.`.`p`p`#`#`#`#`p`p`.`.`````````g``````````",
"`````````````````````.`.`t`t`t`t`t`t`t`t`.`.````````````````````",
"`````````````````````.`.`t`t`t`t`t`t`t`t`.`.````````````````````",
"`````````````````.`.`u`u`p`p`t`t`t`t`p`p`u`u`.`.````````````````",
"`````````````````.`.`u`u`p`p`t`t`t`t`p`p`u`u`.`.````````````````",
"`````````````.`.`v`v`p`p`p`p`p`p`p`p`p`p`p`p`v`v`.`.`l`w````````",
"`````````````.`.`v`v`p`p`p`p`p`p`p`p`p`p`p`p`v`v`.`.`e`h`j`j````",
"`````````````.`.`u`u`u`u`p`p`p`p`p`p`p`p`u`u`u`u`.`.```n`e`g````",
"`````````````.`.`u`u`u`u`p`p`p`p`p`p`p`p`u`u`u`u`.`.````````````",
"`````````````.`.`u`u`u`u`u`u`u`u`u`u`u`u`u`u`u`u`.`.````````````",
"`````````````.`.`u`u`u`u`u`u`u`u`u`u`u`u`u`u`u`u`.`.````````````",
"```````````g`.`.`v`v`u`u`u`u`u`u`u`u`u`u`u`u`v`v`.`.````````````",
"`````````````.`.`v`v`u`u`u`u`u`u`u`u`u`u`u`u`v`v`.`.````````````",
"`````````````.`.`v`v`v`v`v`v`v`v`v`v`v`v`v`v`v`v`.`.````````````",
"`````````````.`.`v`v`v`v`v`v`v`v`v`v`v`v`v`v`v`v`.`.```n`g``````",
"`````````````````.`.`v`v`v`v`v`v`v`v`v`v`v`v`.`.```````c`g``````",
"`````````````````.`.`v`v`v`v`v`v`v`v`v`v`v`v`.`.````````````````",
"`````````````````````.`.`x`x`y`y`y`y`x`x`.`.````````````````````",
"`````````````````````.`.`x`x`y`y`y`y`x`x`.`.````````````````````",
"```````````````w`o```x`x`y`y`z`z`z`z`y`y`x`x````````````````````",
"```````````c`h`j`j`l`x`x`y`y`z`z`z`z`y`y`x`x````````````````````",
"```````````k`k`a`e`j`k```x`x`B`B`B`B`x`x````````````````````````",
"`````````````````````````x`x`B`B`B`B`x`x`````````w`k`k`r`A``````",
"`````````````````````````````````````````````````d`j`m`k`b``````",
"````````````````````````````````````````````````````````````````",
"````````````````````````````````````````````````````````````````",
"````````````````````````````````````````````````````````````````"
};
